<?xml version="1.0" encoding="UTF-8"?>
<svg id="Layer_2" data-name="Layer 2" xmlns="http://www.w3.org/2000/svg" viewBox="0 0 750 750">
  <defs>
    <style>
      .cls-1 {
        fill: blue;
      }

      .cls-2 {
        fill: #fff;
      }
    </style>
  </defs>
  <g id="Layer_1-2" data-name="Layer 1">
    <g>
      <circle class="cls-1" cx="375" cy="375" r="375"/>
      <circle class="cls-2" cx="373.06" cy="382.64" r="260.13"/>
      <g id="Layer_1-2" data-name="Layer 1-2">
        <g>
          <path class="cls-1" d="m238.73,339.28c-3.89,8.1-7.2,16.53-9.5,25.23s-3.68,17.66-4.28,26.63.04,18.25,1.3,27.35c1.07,7.7,2.82,15.43,5.6,22.71s6.21,14.3,10.78,20.66c4.51,6.29,9.55,12.16,15.4,17.24,11.9,10.34,25.6,17.85,40.59,22.7,14.73,4.76,30.52,6.85,45.97,6.67,15.68-.17,31.49-2.61,46.6-6.74,15.12-4.13,30.01-10.16,44-17.41,13.68-7.08,26.53-15.64,38.47-25.35,11.96-9.73,22.4-21.04,31.47-33.5,8.82-12.14,15.81-25.76,20.24-40.1,2.34-7.59,3.73-15.4,4.51-23.3.69-6.94.58-13.93-.32-20.84-1.09-8.37-2.76-16.47-5.81-24.36-2.83-7.34-6.18-14.45-10.38-21.11-7.55-11.99-17.12-22.83-28.11-31.77-11.18-9.09-23.31-16.76-36.56-22.45-13.27-5.7-26.92-10.03-41.24-12.05-7.6-1.09-15.18-1.88-22.86-1.86s-16.06.88-24,2.17c-14.77,2.4-29.05,7.4-42.42,14.1-13.37,6.69-26.1,15.82-37.06,26.25-9.43,8.97-17.9,19.24-24.45,30.51-5.48,9.44-10.53,19.22-14.81,29.27-1.67,3.93-3.96,8.29-4.55,12.6-.57,1.81-.65,3.64-.25,5.45.08,1.82.62,3.52,1.62,5.09,1.66,2.84,4.91,5.54,8.17,6.28,3.5.79,7.43.63,10.54-1.38,2.76-1.79,5.82-4.75,6.28-8.17.43-3.13,1.85-6.2,3.07-9.09l-1.38,3.26c4.84-11.43,10.61-22.7,17.15-33.25,1.72-2.78,3.62-5.42,5.62-8l-2.14,2.77c7.42-9.56,16.02-18.15,25.59-25.56l-2.77,2.14c9.59-7.39,20.1-13.55,31.25-18.28l-3.26,1.38c11.01-4.64,22.59-7.86,34.42-9.48l-3.64.49c11.78-1.58,23.68-1.5,35.45.07l-3.64-.49c13.07,1.79,25.86,5.33,38.01,10.47l-3.26-1.38c11.38,4.83,22.16,11.03,31.95,18.58l-2.77-2.14c8.36,6.48,15.95,13.93,22.43,22.3l-2.14-2.77c5.65,7.36,10.41,15.37,14.03,23.93l-1.38-3.26c3.1,7.42,5.26,15.19,6.36,23.17l-.49-3.64c1.08,8.11,1.03,16.3-.05,24.41l.49-3.64c-1.28,9.25-3.87,18.24-7.49,26.84l1.38-3.26c-4.52,10.66-10.56,20.61-17.61,29.77l2.14-2.77c-8.69,11.23-18.88,21.25-30.11,29.94l2.77-2.14c-11.3,8.71-23.52,16.25-36.31,22.55-3.77,1.85-7.6,3.6-11.46,5.23l3.26-1.38c-15.64,6.57-32.05,11.32-48.87,13.6l3.64-.49c-13.22,1.76-26.63,1.96-39.87.18l3.64.49c-10.53-1.45-20.93-4.11-30.73-8.23l3.26,1.38c-7.65-3.26-14.88-7.41-21.48-12.46l2.77,2.14c-5.92-4.57-11.26-9.83-15.84-15.74l2.14,2.77c-4.02-5.24-7.39-10.93-9.98-17.01l1.38,3.26c-3.42-8.11-5.47-16.8-6.67-25.49l.49,3.64c-1.4-10.47-1.36-21.07.04-31.54l-.49,3.64c1.48-10.82,4.4-21.39,8.64-31.46l-1.38,3.26c.78-1.83,1.6-3.64,2.46-5.43,1.61-3.36,2.4-6.83,1.38-10.54-.88-3.17-3.33-6.61-6.28-8.17-3.17-1.68-7.02-2.52-10.54-1.38-3.24,1.05-6.65,3.11-8.17,6.28h0v-.02Z"/>
          <path class="cls-1" d="m373.47,254.02c1.35,18.44.93,36.96-.83,55.35-.49,5.19-1.1,10.36-1.79,15.52l.25-1.81c-2.98,22.13-7.62,44-13,65.66s-11.62,43.49-17.7,65.16c-3.42,12.18-6.81,24.36-10.02,36.6-.9,3.46,1.15,7.59,4.78,8.42s7.44-1.08,8.42-4.78c4.06-15.45,8.4-30.82,12.72-46.2,4.32-15.35,8.63-30.7,12.61-46.14,3.98-15.43,7.66-30.94,10.69-46.59,3.07-15.89,5.5-31.93,6.95-48.05,1.45-16.12,1.85-31.53,1-47.3-.11-1.94-.23-3.88-.37-5.84-.26-3.56-2.95-7.01-6.84-6.84-3.48.16-7.12,3.02-6.84,6.84h-.02Z"/>
          <path class="cls-1" d="m365.47,358.47c-15.25.77-30.5,1.32-45.76,1.67-15.26.35-30.53.49-45.79.43-8.62-.04-17.23-.15-25.84-.31-3.57-.07-7,3.19-6.84,6.84s3,6.77,6.84,6.84c15.26.3,30.53.39,45.79.28,15.26-.11,30.53-.44,45.78-.97,8.61-.3,17.22-.67,25.82-1.09,3.57-.18,7.01-3.02,6.84-6.84-.16-3.56-3.01-7.03-6.84-6.84h0Z"/>
          <path class="cls-1" d="m366.83,374.49c19.39.26,38.78.7,58.16,1.34,18.76.62,37.5,1.42,56.24,2.34,11.1.55,22.19,1.14,33.29,1.75,3.57.2,6.99-3.28,6.84-6.84-.17-3.88-3.01-6.63-6.84-6.84-19.37-1.07-38.73-2.06-58.1-2.9-19.37-.84-37.5-1.45-56.26-1.91-11.11-.27-22.22-.47-33.33-.63-3.57-.05-7,3.18-6.84,6.84s3,6.78,6.84,6.84h0Z"/>
          <path class="cls-1" d="m359.17,379.13c9.27-2.64,17.25-8.02,24.83-13.81s15.78-12.11,23.77-18.05c16.2-12.05,32.65-23.74,49.34-35.1,9.44-6.42,18.95-12.72,28.53-18.91,3-1.94,4.51-6.15,2.45-9.36-1.93-3-6.15-4.53-9.36-2.45-16.22,10.48-32.23,21.27-48.02,32.4s-31.47,22.64-46.84,34.44c-7.87,6.04-15.62,12.57-24.81,16.52l1.63-.69c-1.7.71-3.41,1.32-5.18,1.82-3.44.98-5.92,4.88-4.78,8.42s4.72,5.83,8.42,4.78h0Z"/>
          <path class="cls-1" d="m356.16,366.55c-14.15,7.35-28.11,15.05-40.5,25.17-2.95,2.42-5.8,4.98-8.49,7.7-2.84,2.89-5.5,5.97-8.53,8.68-.72.65-1.48,1.26-2.22,1.87-.68.57,1.11-.83.4-.31-.16.13-.33.25-.5.37-.45.33-.89.66-1.35.98-1.7,1.2-3.45,2.33-5.22,3.44-3.41,2.14-6.84,4.25-10.28,6.34-7.82,4.73-15.8,9.24-24.24,12.8l1.63-.69c-2.55,1.07-5.13,2.05-7.76,2.92-3.39,1.13-5.95,4.77-4.78,8.42,1.09,3.37,4.78,5.98,8.42,4.78,8.7-2.89,17.01-6.88,25-11.36,7.49-4.2,14.91-8.66,22.06-13.41,4-2.65,7.81-5.62,11.18-9.03,3-3.04,5.84-6.23,8.96-9.15,1.5-1.39,3.03-2.74,4.6-4.04.76-.63,1.52-1.25,2.3-1.86.2-.16.41-.34.62-.48-.08.05-1.34,1.02-.45.35.42-.32.84-.64,1.26-.95,3.33-2.49,6.77-4.81,10.29-7.03,7.91-4.98,16.18-9.36,24.46-13.67,3.18-1.65,4.39-6.36,2.45-9.36-2.09-3.24-5.95-4.22-9.36-2.45h.03Z"/>
          <path class="cls-1" d="m293.74,281.65c.34.43.68.86,1.02,1.29.17.22.34.43.51.65.1.14.95,1.23.23.29-.64-.83-.06-.07.1.13.17.22.34.44.5.67.38.5.76,1,1.14,1.5,1.44,1.91,2.85,3.83,4.26,5.77,2.85,3.94,5.64,7.91,8.43,11.89s5.3,7.58,8,11.33c2.47,3.44,5,6.82,7.2,10.44,8.51,13.99,13.91,29.71,24.98,42.06,2.49,2.77,5.33,5.08,8.08,7.57,2.37,2.14,4.61,4.44,6.76,6.81,2.33,2.57,4.54,5.24,6.69,7.96l.77.98c.13.16.26.33.38.49,0,0-1.12-1.46-.49-.64.57.76,1.16,1.51,1.72,2.27,1.09,1.46,2.18,2.94,3.26,4.42,9.26,12.79,17.84,26.07,27.51,38.58,4.92,6.36,10.06,12.57,15.74,18.27,2.65,2.67,5.43,5.23,8.33,7.63,3.84,3.18,8.16,6.57,13.21,7.47,1.4.25,2.82.45,4.24.32,2.22-.2,3.79-.7,5.82-1.63,1.47-.67,2.73-2.59,3.15-4.09.45-1.64.25-3.82-.69-5.27s-2.34-2.74-4.08-3.15c-1.89-.43-3.52-.12-5.27.69l-.33.16,1.63-.69c-.67.26-1.32.45-2.03.55l1.81-.25c-.7.06-1.38.05-2.08-.02l1.81.25c-1.09-.16-2.11-.47-3.12-.88l1.63.69c-.93-.4-1.83-.87-2.69-1.4-.44-.26-.87-.55-1.29-.84-.21-.15-.42-.29-.63-.45s-1.15-.87-.22-.15c.98.77-.38-.31-.57-.47-.34-.27-.67-.56-1.01-.84-.72-.6-1.42-1.21-2.12-1.82-2.76-2.43-5.4-5-7.93-7.66s-5-5.44-7.37-8.27c-1.21-1.46-2.42-2.93-3.59-4.41-.57-.72-1.14-1.45-1.71-2.18-.26-.35-.76-1.01.44.57-.14-.18-.28-.36-.42-.55-.28-.36-.57-.74-.84-1.1-9.05-11.93-17.18-24.51-25.98-36.62-4.26-5.86-8.67-11.65-13.5-17.06-2.08-2.33-4.25-4.59-6.55-6.71-2.52-2.33-5.22-4.44-7.6-6.93-1.32-1.39-2.57-2.84-3.76-4.35-.28-.36-.67-1.01.44.57-.13-.19-.28-.36-.42-.56-.27-.37-.55-.74-.81-1.11-.54-.75-1.06-1.5-1.57-2.28-2.11-3.17-3.99-6.49-5.77-9.86-3.59-6.77-6.79-13.74-10.6-20.4-4.11-7.18-9.25-13.7-13.99-20.46-5.32-7.58-10.59-15.2-16.18-22.58-1.6-2.12-3.23-4.21-4.88-6.29-1.02-1.28-3.28-2.01-4.83-2.01-1.68,0-3.68.75-4.83,2.01s-2.09,3.02-2.01,4.83c.08,1.92.81,3.34,2.01,4.83h0Z"/>
          <path class="cls-1" d="m381.62,369.92c-1.2-.07.74.25-.43-.05-.37-.09-.75-.17-1.11-.28-.62-.18-1.22-.41-1.82-.65-.05-.02-1.24-.5-.47-.18-.57-.24-1.13-.48-1.71-.72-.72-.3-1.44-.59-2.19-.83-2.56-.8-5.59-.98-8.14-.05-3.48,1.28-5.84,4.21-6.18,7.92-.28,3.05,1.19,5.83,3.06,8.11,1.76,2.16,4.15,3.95,6.61,5.25,2.84,1.5,5.87,2.96,9.02,3.7,3.49.82,7.26.81,10.51-.82,2.19-1.1,4.08-3.08,5.22-5.23,2.75-5.16,1.89-11.97-3.89-14.61-4.81-2.2-11.2-2.29-15.98,0-5.24,2.53-7.47,9.35-4,14.23,1.64,2.32,4.1,4.09,6.93,4.6,3.32.58,6.42-.41,8.9-2.67,4.18-3.81,5.22-10.54,3.21-15.67-2.17-5.56-6.83-9.92-12.25-12.3-5.91-2.59-12.51-3.16-18.43-.26-4.58,2.24-7.84,7-8.74,11.97-1.04,5.74.64,11.27,5.37,14.84,4.73,3.57,11.19,3.72,16.76,4.12,6.23.46,12.92.04,18.29-3.5,4.99-3.28,8.62-8.7,8.43-14.84-.37-12.25-13.42-20.22-23.84-23.46-6.1-1.9-12.77-2.12-18.69.46-5.14,2.22-9.25,6.49-11.37,11.65-.99,2.42-1.45,5.1-1.26,7.7.15,2.05,1.45,3.75,3.56,4.03,1.91.26,4.06-.94,4.5-2.94.14-.62.29-1.24.48-1.84.09-.28.19-.56.29-.83.32-.92-.42.78.03-.05.21-.38.39-.78.62-1.14.09-.14.39-.46.41-.62-.4.51-.47.59-.2.26.1-.12.2-.24.31-.36.26-.28.55-.54.84-.79.61-.55-.83.47-.11.09.2-.11.38-.25.57-.36s.39-.22.6-.33c.37-.19.85-.17-.15.04.45-.09.89-.33,1.34-.46.47-.14.95-.25,1.43-.33.21-.04.42-.05.62-.11.57-.14-1.09.11-.19.03,1.09-.11,2.18-.18,3.27-.2,2.42-.04,4.84.09,7.26.2s4.74.27,7.1.52c1.06.11-.91-.15.13.02.3.05.6.09.9.15.5.08.99.17,1.49.28,1.2.26,2.39.57,3.56.98.23.08.45.17.67.25.93.34-.81-.4.07.03.51.25,1.01.49,1.5.78.4.24.78.5,1.18.76.8.52-.67-.6.05.04.28.25.57.48.84.75.34.33.65.68.97,1.04.65.72-.46-.74.06.09.16.26.33.49.48.75.34.55.62,1.12.88,1.71.35.73.12.26.05.1.2.49.38.98.56,1.49.26.76.48,1.52.67,2.29.09.38.16.78.25,1.17.03.13.14.81.04.08.11.78.15,1.57.15,2.35,0,.39-.04.78-.05,1.17-.05.49-.05.52.02.06-.03.19-.06.38-.1.57-.14.7-.36,1.38-.56,2.06-.35,1.18.38-.67-.1.26-.15.27-.27.56-.43.82-.25.45-.54.85-.81,1.28.57-.86.05-.06-.1.11-.26.3-.53.59-.81.87-.21.21-.43.41-.66.6-.04.04-.79.65-.27.25s-.26.18-.31.21c-.25.17-.5.34-.76.49-.52.32-1.05.61-1.59.88-.23.11-.46.22-.69.33-.98.45.49-.16-.3.13-1.09.38-2.16.75-3.27,1.03-.61.16-1.22.29-1.84.41-.31.06-.62.12-.92.16-.24.04-1.58.36-.46.07-1.14.28-2.48.25-3.65.3-1.6.07-3.22.09-4.82.03-.74-.03-1.47-.08-2.21-.15-.34-.03-.67-.06-.99-.11.87.1-.43-.07-.49-.08-1.58-.26-3.14-.63-4.66-1.13-.38-.13-.76-.27-1.13-.4-1.2-.42.66.34-.5-.2-.55-.26-1.09-.51-1.6-.8-.58-.32-1.15-.67-1.71-1.04-.27-.19-.55-.38-.82-.58.8.57-.34-.29-.48-.41-.94-.81-1.78-1.71-2.58-2.65-.72-.84.43.68-.18-.24-.13-.19-.26-.36-.38-.56-.44-.66-.83-1.33-1.19-2.03-.16-.3-.29-.6-.43-.91.37.87,0-.07-.08-.27-.26-.75-.47-1.51-.62-2.29-.04-.17-.16-1.29-.06-.26-.04-.36-.06-.73-.08-1.1-.02-.6-.11-1.44.08-2.02-.34,1,0,.13.05-.13.08-.4.18-.8.29-1.19.05-.2.12-.39.18-.59.07-.21.61-1.46.15-.46.31-.66.63-1.29,1-1.91.14-.22.27-.44.42-.65.13-.18.84-1.09.17-.28.84-1.03,1.77-1.97,2.81-2.8-.83.66-.02.04.15-.07.33-.22.67-.44,1.01-.63.26-.15.52-.28.78-.42.31-.16.81-.6.1-.06.47-.36,1.39-.48,1.94-.61.16-.04.71-.24.85-.16-.61.07-.69.09-.23.04l.29-.02c.49-.03,1.59-.2,2.02.05l-.51-.06c.19.04.38.07.57.11.39.09.77.2,1.15.32,2.04.67,4.57-.78,5.05-2.86.51-2.25-.67-4.34-2.86-5.05-6.09-1.98-12.6.3-17.15,4.53-4.82,4.47-7.19,10.99-6.26,17.48s5.44,12.44,10.98,16.05c6.13,4,13.81,5.1,20.99,4.87,6.04-.19,12.34-1.18,17.6-4.32,5.99-3.58,9.58-9.92,9.22-16.95-.36-6.91-3.26-13.91-9.02-17.96-4.67-3.29-10.71-4.16-16.26-4.6-5.29-.42-10.8-.84-16.08-.13-5.21.7-9.98,3.29-12.25,8.23-.66,1.43-1.18,2.89-1.51,4.43l8.06,1.09c-.04-.55-.05-1.09-.04-1.64,0-.22.03-.43.05-.65.05-.8-.04.03-.03.14-.08-.94.54-2.22.87-3.07-.36.94.21-.37.34-.61.23-.42.47-.84.75-1.24.18-.27.87-1.13.31-.47.38-.46.77-.9,1.19-1.32.34-.35.69-.67,1.07-.99.16-.15.33-.27.5-.42-.67.57-.12.09.07-.05.83-.59,1.71-1.11,2.64-1.56.03-.02.99-.42.38-.18s.37-.13.4-.14c.4-.14.8-.26,1.21-.37.58-.16,1.18-.26,1.78-.37.15-.03.79-.06.07,0,.39-.03.78-.07,1.17-.09,1.18-.06,2.34,0,3.51.09.14,0,.8.1.08,0,.26.04.52.08.78.13.71.13,1.42.28,2.12.46,1.17.29,2.31.66,3.44,1.07.32.12.63.24.94.36.09.04.73.29.14.05.62.26,1.23.55,1.84.84,2.11,1.01,4.16,2.15,6.07,3.49.23.16,1.21.89.56.38.46.36.9.72,1.33,1.1.82.72,1.6,1.49,2.32,2.31.19.21.36.43.55.65-.1-.11-.47-.65-.02-.03.29.41.57.82.84,1.25s.5.86.72,1.3c.1.19.19.39.27.59-.39-.88,0,.03.05.24.17.52.28,1.05.42,1.58.05.21.08.78,0-.12.02.22.05.44.05.66.03.5.03,1,0,1.51-.02.26-.17.99,0,.09-.06.33-.13.66-.21.98-.11.43-.26.84-.41,1.25.3-.84.05-.15-.05.06-.12.25-.26.48-.39.72-.22.37-.47.74-.71,1.09.48-.71.08-.11-.07.07-.21.26-.44.49-.67.73-.35.36-.71.68-1.09,1.01-.57.5-.06.06.05-.03-.22.16-.45.33-.67.47-.41.27-.83.54-1.27.78-.19.11-.38.21-.58.31-.34.17-.87.4-.21.13-1.05.43-2.14.75-3.26.98-.27.05-.55.1-.82.16-1.29.27.41-.02-.36.06s-1.53.15-2.3.18c-2.61.11-5.22-.09-7.81-.33-1.11-.1-2.22-.21-3.34-.34-.23-.03-1.01-.16-.1,0-.23-.04-.46-.07-.68-.11-.57-.09-1.12-.2-1.69-.33-.49-.12-.98-.25-1.48-.4-.26-.08-.53-.18-.79-.27-.2-.06-.66-.35.05.03-.45-.24-.89-.44-1.32-.7-.24-.15-.47-.3-.69-.47.57.42.04,0-.2-.22-.16-.16-.32-.33-.48-.49-.55-.53.06.15.11.18-.28-.19-.58-.88-.74-1.17-.04-.07-.26-.46-.25-.49,0,.03.28.82.1.21-.15-.49-.27-.97-.4-1.47-.21-.84-.04.11,0,.13-.03,0-.05-.59-.05-.56-.03-.43-.03-.85,0-1.28,0-.24.04-.47.05-.71.05-.62-.11.13-.04.24-.14-.19.24-1.16.31-1.41.12-.42.26-.83.4-1.24.16-.49-.05-.56-.03.05,0-.1.23-.47.26-.52.19-.38.41-.77.64-1.13.13-.2.26-.4.4-.6.45-.68-.55.57.06-.07.26-.27.5-.57.78-.83.16-.16.39-.3.52-.47.33-.43-.8.52-.05.04.36-.24.71-.47,1.09-.68.26-.15.54-.26.8-.41.26-.13.22-.1-.16.05.16-.06.33-.13.5-.18.5-.17,1.01-.32,1.53-.44.23-.05.47-.09.69-.14,1.09-.24-.54,0,.14-.02,1.14-.03,2.24-.04,3.38.03-.8-.05-.21-.04-.02,0,.3.05.59.11.89.17.54.11,1.07.25,1.59.4s1.04.37,1.56.54c.66.21-.84-.41.21.08.33.16.67.31.99.48.96.49,1.87,1.05,2.74,1.67.18.13.36.26.55.4-.64-.47-.15-.11-.03,0,.47.42.95.83,1.4,1.28.36.36.7.76,1.05,1.14.11.13.45.62,0-.02.14.18.26.37.4.56.32.47.62.97.88,1.47.11.2.2.41.3.62-.42-.8.05.15.1.3.16.49.29.98.4,1.49l.03.15c.07.47.07.4-.02-.18.05.08.04.55.05.61.02.47-.03.92-.03,1.38,0,.62.23-.99,0-.03-.06.3-.12.6-.2.89-.09.34-.16.88-.37,1.16.53-.65.16-.32-.02-.03-.13.21-.23.44-.36.65-.06.1-.25.46-.32.49.29-.13.46-.5.1-.15-.16.17-.34.35-.5.52-.47.5-.04.26.06,0-.05.15-.47.29-.6.38l-.13.07c-.4.2-.34.18.2-.05-.04.06-.52.16-.54.17-.78.29.27-.12.27,0,0,.04-.62.02-.69.02-.89.05.16-.06.13.04,0,.02-.58-.15-.55-.14-.14-.04-.27-.08-.4-.13-.29-.11-.18-.05.33.15-.05.03-1.44-.76-.79-.42.54.28-.14-.13-.24-.23-.14-.13-.26-.27-.39-.41-.57-.58.15.16.13.16-.11,0-.27-.52-.36-.6-.32-.3.21.88.04.08l-.08-.26c-.09-.45-.1-.36,0,.26-.03,0-.03-.6-.03-.57-.07-.87.02.28-.05.23-.05-.04.15-.58.16-.67.17-.8.17.14-.07.13,0,0,.26-.47.25-.45.3-.61-.07.21-.21.22.04,0,.27-.31.33-.37.58-.6.24,0-.08,0,.16,0,.92-.57,1.09-.67.54-.32-.19.24-.26.09,0,0,.44-.16.5-.18.43-.15.88-.26,1.32-.36.18-.04.36-.06.55-.11.95-.19-.94.05.03,0,.86-.05,1.71-.09,2.56-.05.42.02.84.08,1.26.1.6.03-1.04-.2-.15,0,.35.07.7.12,1.06.2.47.1.93.25,1.4.36.99.26-.31-.26.17.06.19.13.41.25.61.36.57.3-.57-.45.07.09.44.36-.26.07-.15-.25,0,0,.23.37.27.42.47.63-.19-.79,0-.08.05.17.08.44.16.59.23.45-.02-1.05-.03-.23,0,.19-.12.89-.02,1.02-.22-.26.21-.93,0-.19-.05.21-.1.43-.16.65-.05.17-.11.34-.16.51-.26.86.43-.77,0,.02-.2.36-.41.71-.62,1.07-.38.65.1.13.07-.06,0,.05-.36.42-.36.41-.12.14-.25.26-.38.38-.15.14-.49.68-.2.21.26-.43,0,0-.24.15-.09.05-.69.38-.69.38-.02-.06.99-.31.26-.11-.22.05-.43.14-.65.19-.26.06-.53.13-.79.17.74-.13-.11,0-.3,0-.6.03-1.2,0-1.8-.05.68.05.03,0-.11-.03-.4-.09-.8-.16-1.19-.26-.67-.17-1.33-.38-1.98-.62-.26-.09-.53-.2-.78-.3-.78-.3-.36-.15-.19-.07-1.26-.54-2.49-1.15-3.69-1.79-.88-.47-1.73-1.01-2.54-1.6-.63-.45-.11-.09,0,0-.22-.18-.44-.36-.66-.56-.42-.37-.83-.78-1.21-1.19-.18-.2-.36-.41-.54-.63.1.12.45.67.06.05-.25-.4-.47-.8-.69-1.21-.26-.49.2.9.04.02-.02-.08-.17-.54-.15-.56.12-.07,0,.93.05.25.05-1-.17-.12-.06-.04.04.03.19-1.05.05-.35-.12.59.15-.23.2-.35.16-.34.41-.26-.1.11.05-.04.32-.39.42-.41l-.36.29c.12-.08.25-.16.37-.22.57-.22-.98.25-.05,0,.19-.05.37-.12.57-.16.15-.04.29-.06.44-.09.31-.05.2-.04-.35.05.06.08,1.27,0,1.38,0h.16c.47.06.41.05-.17-.02.09-.03.55.11.6.12.42.1.84.23,1.25.36.31.11.61.22.91.34.13.05,1.11.45.78.31l-.13-.05c.45.19.89.37,1.34.57.24.1.48.2.72.3.54.22,1.09.43,1.63.62,1.39.47,2.82.7,4.28.79,2.14.14,4.19-1.99,4.1-4.1-.1-2.34-1.81-3.96-4.1-4.1h0l.02-.03Z"/>
          <path class="cls-1" d="m378.62,377.93c-1.23-.47-2.57.1-3.19,1.23-.35.64-.17,1.5.49,1.87,2.65,1.45,5.63,1.51,8.38.3.8-.36.87-1.6.27-2.15-3.04-2.81-7.04-3.98-11.12-3.37-.97.15-1.38,1.69-.6,2.29,2.02,1.58,4.38,2.17,6.91,1.68,1.2-.24,1.27-1.91.33-2.5-2.38-1.48-5.03-2.36-7.82-2.62-2.33-.21-5,0-6.67,1.83-.52.57-.51,1.37,0,1.93,2.75,3.05,6.83,4.71,10.93,4.43,1.07-.07,1.95-1.51.97-2.33-3.95-3.29-9.07-4.92-14.2-4.29-1.16.15-1.82,1.4-.97,2.33,2.7,2.97,7.11,3.68,10.68,1.95.78-.38.88-1.58.27-2.15-1.88-1.75-4.21-2.92-6.77-3.29-2.19-.33-5.35-.32-7.14,1.21-.9.78-1.23,1.91-.88,3.06.39,1.29,1.52,1.93,2.71,2.36,2.84,1.02,5.95,1.09,8.88.37.99-.24,1.34-1.59.6-2.29-1.87-1.77-4.18-3.05-6.7-3.57-2.22-.47-5.22-.78-6.67,1.31-.27.39-.23.98,0,1.38,2.12,3.64,6.68,4.48,10.51,5.03,2.4.35,4.81.54,7.23.53,1.96,0,4.22,0,5.63-1.61.46-.52.6-1.44,0-1.93-2.3-1.91-5-3.19-7.97-3.59-1.29-.17-2.65-.25-3.87.32-1.29.6-2.14,1.81-1.41,3.18.63,1.18,1.89,1.71,3.09,2.11,1.59.51,3.22.9,4.87,1.19,3.36.57,6.76.71,10.15.39.55-.05,1.22-.38,1.32-1,.63-4.07-4.41-5.84-7.47-6.91-3.72-1.31-8.02-2.08-11.97-1.67-1.45.16-2.97.67-3.68,2.03-.93,1.79,1.18,3.43,2.59,4.14,3.75,1.88,8.26,2.46,12.4,2.12.87-.07,1.58-.82,1.32-1.73-.5-1.79-2.05-2.61-3.65-3.28-1.94-.82-3.95-1.46-6.01-1.88s-4.03-.64-6.07-.67c-1.82-.03-4.06-.12-5.53,1.15-1.3,1.12-1.67,3.04-.55,4.41s3.21,1.9,4.89,2.12c.86.12,1.72.19,2.48-.28s1.12-1.4.9-2.27c-.43-1.73-2.35-2.64-3.97-2.89s-4.8-.04-4.83,2.22c-.04,2.11,2.68,3.04,4.37,3.18,1.09.09,1.64-1.21,1.19-2.06-1.4-2.56-4.66-3.84-7.4-2.75-.87.35-1.47,1.55-.6,2.29,2.5,2.14,5.73,3.23,9.02,2.82.88-.11,1.89-1.12,1.19-2.06-2.07-2.74-5.26-3.57-8.56-3.72-1.22-.05-3.33-.36-4.24.67-.59.66-.48,1.62-.53,2.44-.05.88-.08,1.77-.11,2.65-.04,1.05-.05,2.1-.05,3.14,0,.26-.02.55,0,.81,0,.05-.02.12,0,.17-.15-.75,2-.6,2.24-.84.09-.09.25.4.12.14-.05-.1-.12-.2-.18-.28-.23-.34-.48-.67-.76-.97-.21-.23-.47-.41-.67-.64l.36,1.33h0c-.57.32-1.12.64-1.69.95-.36-.11-.32-.15-.05,0s.57.28.85.41c1.11.52,2.26.98,3.41,1.43.97.37,1.81.8,2.85.67.74-.09,1.47-.27,2.19-.47,3.67-.97,7.6-2.09,11-3.82,2.2-1.12,2.32-4.89-.36-5.51-1.12-.26-2.19.95-1.54,2.01,1.89,3.08,5.99,4.54,9.47,3.78,1.69-.36,3.2-1.46,3.77-3.13.5-1.5.21-3.25-1.03-4.29-.64-.54-1.71-.57-2.15.27-.57,1.08,0,2.2,1.19,2.48s2.45-.58,3.38-1.26c.98-.72.82-2.07-.33-2.5-2.6-.97-5.25-1.71-7.98-2.24-1.72-.33-2.45,2.31-.73,2.64,2.72.52,5.38,1.27,7.98,2.24l-.33-2.5c-.29.22-.58.42-.89.6l-.31.17c-.53.16-.43.33.3.52v1.38l.08-.16-2.15.27c.59.49.6,1.27.17,1.9-.57.84-1.76,1.03-2.69,1.04-2.05,0-4.29-.8-5.4-2.62l-1.54,2.01c.14.04.14,0,0-.11.05.11.07.23.05.35,0,.1-.23.4.11.03-.13.15-.42.24-.59.32-.67.33-1.45.61-2.24.9-2.12.78-4.27,1.5-6.44,2.14-.91.26-1.82.53-2.75.73-.14.03-.27.05-.41.08-.37.07-.04-.04-.18.03s-.48-.1.02.05c-.28-.08-.58-.21-.86-.31-1.29-.48-2.57-.98-3.82-1.57-.42-.2-.85-.49-1.29-.62-.76-.22-1.43.27-1.69.96h0c-.17.47.05.98.36,1.33.19.23.46.42.67.64.27.29.16.16.41.54.13.19.24.4.39.57.66.67,1.76.57,2.23-.26.26-.44.22-.99.22-1.49,0-.91,0-1.82.04-2.74.02-.74.05-1.48.07-2.22.02-.46.18-1.13.07-1.58.14-.63-.05-.61-.57.05.08-.02.17-.02.26-.02.61.21,1.66-.02,2.32,0,.76.04,1.51.1,2.25.25,1.49.3,3,.87,3.95,2.12l1.19-2.06c-2.56.33-5.11-.32-7.08-2.02l-.6,2.29c1.65-.66,3.46-.09,4.32,1.5l1.19-2.06c-.27-.03-.55-.08-.8-.17-.13-.05-.64-.42-.75-.39l-.35.73c.17-.06.36-.11.54-.14.3-.05.61-.07.92-.06.56.03,1.1.17,1.6.43.1.05.57.48.63.47l.35-.71c-.18,0-.36-.02-.54-.04-.73-.08-2.95-.37-3.31-1.16-.48-1.04,1.97-1.09,2.52-1.11,2.62-.08,5.23.18,7.78.79,1.33.32,2.64.72,3.92,1.21.88.34,2.53.78,2.83,1.81l1.32-1.73c-2.41.2-4.82.07-7.18-.47-1.82-.43-4.6-.98-5.53-2.8l.14,1.06c.35-1,3.09-.68,3.83-.67,1.82.05,3.63.27,5.41.68s3.52.97,5.19,1.71c.88.39,3.86,1.47,3.65,2.8l1.32-1c-2.85.27-5.75.25-8.6-.16-1.38-.2-2.74-.48-4.09-.85-.77-.21-2.82-.47-3.06-1.4l-.14,1.06c.71-1.09,3.4-.31,4.33-.05,1.74.48,3.37,1.33,4.76,2.49v-1.93c-1,1.16-3.18.83-4.55.8-2.03-.03-4.06-.18-6.07-.48-2.88-.44-6.83-.93-8.45-3.71v1.38c.32-.46,1.53-.28,2-.26.89.04,1.77.21,2.63.47,1.68.5,3.18,1.4,4.45,2.61l.6-2.29c-1.86.45-3.79.53-5.68.12-.53-.11-2.23-.34-2.49-.89s.61-.61,1.03-.73c3.2-.85,6.71.1,9.13,2.34l.27-2.15c-2.5,1.21-5.53.5-7.37-1.52l-.97,2.33c4.39-.55,8.84.64,12.26,3.48l.97-2.33c-3.44.23-6.68-1.08-9-3.63v1.93c1.24-1.35,3.46-1.2,5.14-.99,2.16.26,4.2,1.05,6.05,2.2l.33-2.5c-1.47.29-3.05-.05-4.25-.97l-.6,2.29c3.05-.45,6.2.59,8.45,2.67l.27-2.15c-1.81.8-3.89.64-5.62-.3l.49,1.87c-.13-.08-.1-.08.1.03,1.64.63,2.36-2.02.73-2.64h-.03Z"/>
          <path class="cls-1" d="m259.18,324.71c1.76,0,1.76-2.74,0-2.74s-1.76,2.74,0,2.74h0Z"/>
        </g>
      </g>
    </g>
  </g>
</svg>