<?xml version="1.0" encoding="UTF-8"?>
<svg id="Layer_2" data-name="Layer 2" xmlns="http://www.w3.org/2000/svg" viewBox="0 0 750 750">
  <defs>
    <style>
      .cls-1 {
        stroke-width: 1.51px;
      }

      .cls-1, .cls-2, .cls-3, .cls-4, .cls-5, .cls-6, .cls-7, .cls-8, .cls-9, .cls-10, .cls-11, .cls-12, .cls-13, .cls-14, .cls-15, .cls-16, .cls-17, .cls-18, .cls-19, .cls-20, .cls-21, .cls-22, .cls-23, .cls-24, .cls-25, .cls-26, .cls-27, .cls-28, .cls-29, .cls-30, .cls-31, .cls-32, .cls-33, .cls-34, .cls-35, .cls-36, .cls-37, .cls-38, .cls-39, .cls-40, .cls-41, .cls-42, .cls-43, .cls-44, .cls-45, .cls-46, .cls-47, .cls-48, .cls-49, .cls-50 {
        stroke-miterlimit: 10;
      }

      .cls-1, .cls-15, .cls-17, .cls-21, .cls-23, .cls-34, .cls-35, .cls-48 {
        fill: none;
      }

      .cls-1, .cls-15, .cls-21, .cls-23, .cls-34, .cls-35, .cls-38, .cls-40 {
        stroke: #664690;
      }

      .cls-2, .cls-3, .cls-6, .cls-8, .cls-9, .cls-11, .cls-12, .cls-13, .cls-14, .cls-24, .cls-25, .cls-29, .cls-32, .cls-33, .cls-39, .cls-43, .cls-44, .cls-45, .cls-46 {
        stroke: #42210b;
      }

      .cls-2, .cls-3, .cls-6, .cls-8, .cls-9, .cls-11, .cls-12, .cls-14, .cls-25, .cls-29, .cls-32, .cls-33, .cls-39, .cls-43, .cls-44, .cls-45, .cls-46 {
        fill: #42210b;
      }

      .cls-2, .cls-50 {
        stroke-width: 1.26px;
      }

      .cls-3 {
        stroke-width: .91px;
      }

      .cls-4, .cls-5, .cls-7, .cls-10, .cls-22, .cls-26, .cls-30, .cls-31, .cls-42, .cls-50 {
        stroke: #c59b6d;
      }

      .cls-4, .cls-10, .cls-22, .cls-30, .cls-31, .cls-42, .cls-50 {
        fill: #ffd69e;
      }

      .cls-4, .cls-11 {
        stroke-width: 1.14px;
      }

      .cls-5, .cls-6 {
        stroke-width: .92px;
      }

      .cls-5, .cls-7, .cls-26 {
        fill: #c59b6d;
      }

      .cls-7, .cls-8, .cls-23 {
        stroke-width: .9px;
      }

      .cls-9 {
        stroke-width: .55px;
      }

      .cls-10, .cls-14 {
        stroke-width: 1.14px;
      }

      .cls-12 {
        stroke-width: .57px;
      }

      .cls-13 {
        stroke-width: 5.91px;
      }

      .cls-13, .cls-24 {
        fill: #603813;
      }

      .cls-15 {
        stroke-width: 1.62px;
      }

      .cls-16 {
        stroke-width: .63px;
      }

      .cls-16, .cls-20, .cls-28, .cls-36, .cls-37, .cls-47 {
        stroke: #39b44a;
      }

      .cls-16, .cls-20, .cls-37, .cls-47 {
        fill: #39b44a;
      }

      .cls-51, .cls-18, .cls-52, .cls-53 {
        fill: #fff;
      }

      .cls-54 {
        fill: #ff5c00;
      }

      .cls-17, .cls-18, .cls-48 {
        stroke: #ff5c00;
      }

      .cls-17, .cls-52, .cls-53, .cls-55, .cls-48 {
        isolation: isolate;
      }

      .cls-17, .cls-52, .cls-53, .cls-48 {
        font-family: CooperBlack, 'Cooper Black';
        font-size: 57.68px;
      }

      .cls-17, .cls-53 {
        letter-spacing: -.03em;
      }

      .cls-17, .cls-48 {
        stroke-width: 2.64px;
      }

      .cls-18 {
        stroke-width: 2.67px;
      }

      .cls-19 {
        stroke-width: 1.04px;
      }

      .cls-19, .cls-27, .cls-41, .cls-49 {
        fill: #d10000;
      }

      .cls-19, .cls-49 {
        stroke: #ed4d00;
      }

      .cls-20 {
        stroke-width: 1.58px;
      }

      .cls-21 {
        stroke-width: 1.84px;
      }

      .cls-22, .cls-24 {
        stroke-width: 9.83px;
      }

      .cls-25, .cls-26 {
        stroke-width: .95px;
      }

      .cls-27 {
        stroke-width: 5.54px;
      }

      .cls-27, .cls-41 {
        stroke: #a80000;
      }

      .cls-28 {
        stroke-width: 4.13px;
      }

      .cls-28, .cls-36 {
        fill: #8bc53f;
      }

      .cls-29 {
        stroke-width: .68px;
      }

      .cls-30, .cls-33 {
        stroke-width: 1.3px;
      }

      .cls-31 {
        stroke-width: 1.32px;
      }

      .cls-32 {
        stroke-width: .69px;
      }

      .cls-34 {
        stroke-width: 1.59px;
      }

      .cls-35 {
        stroke-width: 2.01px;
      }

      .cls-36, .cls-37 {
        stroke-width: 7.84px;
      }

      .cls-38 {
        fill: #664690;
      }

      .cls-38, .cls-40, .cls-41 {
        stroke-width: 9.27px;
      }

      .cls-39 {
        stroke-width: .41px;
      }

      .cls-40 {
        fill: #b6c4fa;
      }

      .cls-42, .cls-43 {
        stroke-width: 1.52px;
      }

      .cls-44 {
        stroke-width: .78px;
      }

      .cls-45 {
        stroke-width: .76px;
      }

      .cls-46 {
        stroke-width: .54px;
      }

      .cls-47 {
        stroke-width: .55px;
      }

      .cls-49 {
        stroke-width: 1.45px;
      }
    </style>
  </defs>
  <g id="Layer_1-2" data-name="Layer 1">
    <g>
      <circle class="cls-54" cx="375" cy="375" r="375"/>
      <circle class="cls-51" cx="374.64" cy="375.93" r="260.13"/>
      <g id="Layer_1-2" data-name="Layer 1-2">
        <g>
          <g class="cls-55">
            <text class="cls-52" transform="translate(258.5 530.02)"><tspan x="0" y="0">BU</tspan></text>
            <text class="cls-48" transform="translate(258.5 530.02)"><tspan x="0" y="0">BU</tspan></text>
            <text class="cls-53" transform="translate(347.15 530.02)"><tspan x="0" y="0">R</tspan></text>
            <text class="cls-17" transform="translate(347.15 530.02)"><tspan x="0" y="0">R</tspan></text>
            <text class="cls-52" transform="translate(390.44 530.02)"><tspan x="0" y="0">GER</tspan></text>
            <text class="cls-48" transform="translate(390.44 530.02)"><tspan x="0" y="0">GER</tspan></text>
          </g>
          <g>
            <g>
              <g>
                <path class="cls-22" d="m482.25,443.28c0-2.65-.84-5.11-2.08-7.17h0c0-9.14-42.39-12.43-94.63-12.43s-94.55,3.29-94.55,12.42h0c-1.24,2.06-1.96,4.52-1.96,7.17v8.94c0,2.69.75,5.2,2.03,7.27,1.66,8.88,43.3,12.65,94.48,12.65s93.14-3.75,94.63-12.66c1.26-2.06,2.08-4.59,2.08-7.26v-8.94Z"/>
                <path class="cls-22" d="m482.17,437.73c0-2.65-.84-5.11-2.08-7.17h0c0-9.14-42.39-12.43-94.63-12.43s-94.55,3.29-94.55,12.42h0c-1.24,2.06-1.96,4.52-1.96,7.17v8.94c0,2.69.75,5.2,2.03,7.27,1.66,8.88,43.3,12.65,94.48,12.65s93.14-3.75,94.63-12.66c1.26-2.06,2.08-4.59,2.08-7.26v-8.94Z"/>
                <path class="cls-22" d="m482.26,429.04c0-2.65-.84-5.11-2.08-7.17h0c0-9.14-42.39-12.43-94.63-12.43s-94.55,3.29-94.55,12.42h0c-1.24,2.06-1.96,4.52-1.96,7.17v8.94c0,2.69.75,5.2,2.03,7.27,1.66,8.88,43.3,12.65,94.48,12.65s93.14-3.75,94.63-12.66c1.26-2.06,2.08-4.59,2.08-7.26v-8.94Z"/>
              </g>
              <path class="cls-10" d="m366.64,445.57c.92.53,1.03,2.06.25,3.41s-2.16,2.01-3.08,1.48-2.18-2.72-1.4-4.07,3.3-1.35,4.22-.82h0Z"/>
              <path class="cls-30" d="m316.07,419.23c-1.22-.71.35-1.36,1.12-2.71s.63-.71,1.85,0,2.94,1.08,2.17,2.42-3.91.99-5.14.28Z"/>
              <path class="cls-42" d="m423.35,411.84c1.41,0,2.55,1.71,2.55,3.83s-1.14,3.83-2.55,3.83-4.31-1.71-4.31-3.83,2.9-3.83,4.31-3.83Z"/>
              <path class="cls-4" d="m345.35,426.74c1.05-.94,2.56-.96,3.35-.07s.59,2.38-.47,3.32-3.87,2.13-4.66,1.23.73-3.54,1.78-4.48h0Z"/>
              <path class="cls-31" d="m459.96,422.69c1.15.66,1.4,2.4.55,3.86s-2.47,2.12-3.62,1.45-2.83-3.22-1.99-4.69,3.9-1.29,5.05-.62h0Z"/>
              <path class="cls-50" d="m473.37,440.33c-1.05-.94-2.69-.82-3.65.27s-.88,2.72.17,3.65,4,1.98,4.96.89-.43-3.88-1.48-4.82h0Z"/>
              <path class="cls-30" d="m396.57,432.27c-1.22.71-1.58,2.37-.8,3.71s2.4,1.87,3.62,1.16,3.1-3.24,2.32-4.59-3.91-.99-5.14-.28h0Z"/>
              <path class="cls-42" d="m438.57,450.51c1.41,0,2.55-1.71,2.55-3.83s-1.14-3.83-2.55-3.83-4.31,1.71-4.31,3.83,2.9,3.83,4.31,3.83Z"/>
              <path class="cls-50" d="m311.5,445.97c1.05.94,2.69.82,3.65-.27s.88-2.72-.17-3.65-4-1.98-4.96-.89.43,3.88,1.48,4.82h0Z"/>
              <path class="cls-30" d="m378.61,418.04c1.22-.71,1.58-2.37.8-3.71s-2.4-1.87-3.62-1.16-3.1,3.24-2.32,4.59,3.91.99,5.14.28h0Z"/>
            </g>
            <g>
              <g>
                <path class="cls-24" d="m480.37,413.38c0-2.65-.84-5.11-2.08-7.17h0c0-9.14-42.39-12.43-94.63-12.43s-94.55,3.29-94.55,12.42h0c-1.24,2.06-1.96,4.52-1.96,7.17v8.94c0,2.69.75,5.2,2.03,7.27,1.66,8.88,43.3,12.65,94.48,12.65s93.14-3.75,94.63-12.66c1.26-2.06,2.08-4.59,2.08-7.26v-8.94Z"/>
                <path class="cls-25" d="m301.72,406.25c1.05-.94,2.35-1.19,2.9-.57s.14,1.88-.91,2.81-3.67,2.35-4.22,1.73,1.17-3.04,2.23-3.98h0Z"/>
                <path class="cls-14" d="m390.7,432.2c.92.53,1.03,2.06.25,3.41s-2.16,2.01-3.08,1.48-2.18-2.72-1.4-4.07,3.3-1.35,4.22-.82h0Z"/>
                <path class="cls-29" d="m307.05,419.96c1.41,0,2.55.34,2.55.76s-1.14.76-2.55.76-4.31-.34-4.31-.76,2.9-.76,4.31-.76Z"/>
                <path class="cls-2" d="m377.94,404.26c-1.05.94-2.69.82-3.65-.27s-.88-2.72.17-3.65,4-1.98,4.96-.89-.43,3.88-1.48,4.82h0Z"/>
                <path class="cls-33" d="m340.36,398.71c-1.22-.71-1.58-2.37-.8-3.71s2.4-1.87,3.62-1.16,3.1,3.24,2.32,4.59-3.91.99-5.14.28h0Z"/>
                <path class="cls-43" d="m409.35,405.85c1.41,0,2.55,1.71,2.55,3.83s-1.14,3.83-2.55,3.83-4.31-1.71-4.31-3.83,2.9-3.83,4.31-3.83h0Z"/>
                <path class="cls-11" d="m427.32,394.45c1.05-.94,2.56-.96,3.35-.07s.59,2.38-.47,3.32-3.87,2.13-4.66,1.23.73-3.54,1.78-4.48h0Z"/>
                <path class="cls-11" d="m458.88,400.15c1.22.71,1.72,2.12,1.12,3.16s-2.08,1.31-3.3.61-3.24-2.99-2.64-4.04,3.59-.43,4.82.27h0Z"/>
                <path class="cls-6" d="m439.11,429.03c1.41,0,2.55.63,2.55,1.4s-1.14,1.4-2.55,1.4-4.31-.63-4.31-1.4,2.9-1.4,4.31-1.4Z"/>
                <path class="cls-25" d="m409.68,429.36c1.05.94,2.35,1.19,2.9.57s.14-1.88-.91-2.81-3.67-2.35-4.22-1.73,1.17,3.04,2.23,3.98h0Z"/>
                <path class="cls-8" d="m371.17,421.19c1.41,0,2.55-.6,2.55-1.33s-1.14-1.33-2.55-1.33-4.31.6-4.31,1.33,2.9,1.33,4.31,1.33Z"/>
                <path class="cls-2" d="m458.21,431.35c-1.05-.94-2.69-.82-3.65.27s-.88,2.72.17,3.65,4,1.98,4.96.89-.43-3.88-1.48-4.82h0Z"/>
                <path class="cls-33" d="m420.63,436.9c-1.22.71-1.58,2.37-.8,3.71s2.4,1.87,3.62,1.16,3.1-3.24,2.32-4.59-3.91-.99-5.14-.28h0Z"/>
                <path class="cls-43" d="m451.32,418.91c1.41,0,2.55-1.71,2.55-3.83s-1.14-3.83-2.55-3.83-4.31,1.71-4.31,3.83,2.9,3.83,4.31,3.83Z"/>
                <path class="cls-2" d="m318.71,418.3c1.05.94,2.69.82,3.65-.27s.88-2.72-.17-3.65-4-1.98-4.96-.89.43,3.88,1.48,4.82h0Z"/>
                <path class="cls-33" d="m356.3,412.75c1.22-.71,1.58-2.37.8-3.71s-2.4-1.87-3.62-1.16-3.1,3.24-2.32,4.59,3.91.99,5.14.28h0Z"/>
                <path class="cls-43" d="m346.83,432.35c-1.41,0-2.55,1.71-2.55,3.83s1.14,3.83,2.55,3.83,4.31-1.71,4.31-3.83-2.9-3.83-4.31-3.83Z"/>
              </g>
              <g>
                <path class="cls-13" d="m480.4,406.33c0-.96-.84-1.85-2.08-2.6h0c0-3.31-42.48-10.02-94.72-10.02s-94.46,6.71-94.46,10.02h0c-1.24.74-1.96,1.64-1.96,2.6v3.24c0,.98.75,1.88,2.03,2.63,1.66,3.22,41.59,9.2,92.78,9.2s94.84-5.97,96.33-9.2c1.26-.75,2.08-1.66,2.08-2.63v-3.24Z"/>
                <path class="cls-12" d="m301.75,403.75c1.05-.34,2.35-.43,2.9-.21s.14.68-.91,1.02-3.67.85-4.22.63,1.17-1.1,2.23-1.44h0Z"/>
                <path class="cls-29" d="m390.73,413.15c.92.19,1.03.75.25,1.23s-2.16.73-3.08.54-2.18-.98-1.4-1.47,3.3-.49,4.22-.3h0Z"/>
                <path class="cls-39" d="m307.09,408.72c1.41,0,2.55.12,2.55.28s-1.14.28-2.55.28-4.31-.12-4.31-.28,2.9-.28,4.31-.28Z"/>
                <path class="cls-45" d="m377.98,403.03c-1.05.34-2.69.3-3.65-.1s-.88-.98.17-1.32,4-.72,4.96-.32-.43,1.41-1.48,1.74h0Z"/>
                <path class="cls-44" d="m340.39,401.02c-1.22-.25-1.58-.86-.8-1.35s2.4-.68,3.62-.42,3.1,1.17,2.32,1.66-3.91.36-5.14.1h0Z"/>
                <path class="cls-3" d="m409.38,403.6c1.41,0,2.55.62,2.55,1.39s-1.14,1.39-2.55,1.39-4.31-.62-4.31-1.39,2.9-1.39,4.31-1.39Z"/>
                <path class="cls-32" d="m427.35,399.47c1.05-.34,2.56-.35,3.35-.02.8.32.59.86-.47,1.2s-3.87.77-4.66.45.73-1.28,1.78-1.62Z"/>
                <path class="cls-32" d="m458.92,401.54c1.22.25,1.72.77,1.12,1.14s-2.08.48-3.3.22-3.24-1.09-2.64-1.46,3.59-.16,4.82.1h0Z"/>
                <path class="cls-9" d="m439.15,412c1.41,0,2.55.23,2.55.51s-1.14.51-2.55.51-4.31-.23-4.31-.51,2.9-.51,4.31-.51Z"/>
                <path class="cls-12" d="m409.71,412.12c1.05.34,2.35.43,2.9.21s.14-.68-.91-1.02-3.67-.85-4.22-.63,1.17,1.1,2.23,1.44h0Z"/>
                <path class="cls-46" d="m371.21,409.16c1.41,0,2.55-.22,2.55-.48s-1.14-.48-2.55-.48-4.31.22-4.31.48,2.9.48,4.31.48Z"/>
                <path class="cls-45" d="m458.25,412.84c-1.05-.34-2.69-.3-3.65.1s-.88.98.17,1.32,4,.72,4.96.32-.43-1.41-1.48-1.74h0Z"/>
                <path class="cls-44" d="m420.66,414.85c-1.22.25-1.58.86-.8,1.35s2.4.68,3.62.42,3.1-1.17,2.32-1.66-3.91-.36-5.14-.1h0Z"/>
                <path class="cls-3" d="m451.36,408.34c1.41,0,2.55-.62,2.55-1.39s-1.14-1.39-2.55-1.39-4.31.62-4.31,1.39,2.9,1.39,4.31,1.39Z"/>
                <path class="cls-45" d="m318.75,408.12c1.05.34,2.69.3,3.65-.1s.88-.98-.17-1.32-4-.72-4.96-.32.43,1.41,1.48,1.74h0Z"/>
                <path class="cls-44" d="m356.33,406.1c1.22-.25,1.58-.86.8-1.35s-2.4-.68-3.62-.42-3.1,1.17-2.32,1.66,3.91.36,5.14.1h0Z"/>
                <path class="cls-3" d="m346.87,413.21c-1.41,0-2.55.62-2.55,1.39s1.14,1.39,2.55,1.39,4.31-.62,4.31-1.39-2.9-1.39-4.31-1.39Z"/>
              </g>
            </g>
            <g>
              <path class="cls-38" d="m383.97,418.52c51.29,0,93.08-6.32,94.57-14.24,1.26-1.83,2.08-4.09,2.08-6.46v-7.96c0-2.36-.84-4.55-2.08-6.38h0c0-8.14-42.35-14.73-94.59-14.73s-94.59,6.59-94.59,14.72h0c-1.24,1.83-1.96,4.02-1.96,6.38v7.96c0,2.4.75,4.63,2.03,6.47,1.66,7.9,43.35,14.23,94.53,14.23"/>
              <path class="cls-40" d="m481.43,382.38c0-2.36-.84-4.55-2.08-6.38h0c0-8.14-42.35-14.73-94.59-14.73s-94.59,6.59-94.59,14.72h0c-1.24,1.83-1.96,4.02-1.96,6.38v7.96c0,2.4.75,4.63,2.03,6.47,1.66,7.9,41.28,14.13,92.47,14.13s95.15-6.21,96.65-14.14c1.26-1.83,2.08-4.09,2.08-6.46v-7.96h0Z"/>
              <ellipse class="cls-23" cx="382.28" cy="385.16" rx="7.52" ry="2.02"/>
              <ellipse class="cls-1" cx="382.83" cy="385.22" rx="12.46" ry="3.46"/>
              <ellipse class="cls-15" cx="383.39" cy="385.26" rx="22.29" ry="6.42"/>
              <ellipse class="cls-15" cx="382.71" cy="385.23" rx="36.91" ry="10.25"/>
              <ellipse class="cls-35" cx="382.33" cy="385.07" rx="45.87" ry="12.74"/>
              <ellipse class="cls-15" cx="382.19" cy="384.98" rx="65.12" ry="18.09"/>
              <path class="cls-15" d="m435.91,383.6c0,8.35-24.47,17.19-54.59,17.19s-54.47-8.84-54.47-17.19,24.36-13.73,54.47-13.73,54.59,5.38,54.59,13.73Z"/>
              <ellipse class="cls-34" cx="381.36" cy="385.5" rx="76.05" ry="21.7"/>
              <ellipse class="cls-21" cx="382.77" cy="386.25" rx="89.11" ry="24.75"/>
            </g>
            <g>
              <path class="cls-41" d="m479.15,368.63c0-2.36-.84-4.55-2.08-6.38h0c0-8.14-42.35-14.73-94.59-14.73s-94.59,6.59-94.59,14.72h0c-1.24,1.83-1.96,4.02-1.96,6.38v7.96c0,2.4.75,4.63,2.03,6.47,1.66,7.9,43.35,14.23,94.53,14.23s93.08-6.32,94.57-14.24c1.26-1.83,2.08-4.09,2.08-6.46v-7.96Z"/>
              <g>
                <path class="cls-41" d="m479.05,361.16c0-2.36-.84-4.55-2.08-6.38h0c0-8.14-42.35-14.73-94.59-14.73s-94.59,6.59-94.59,14.72h0c-1.24,1.83-1.96,4.02-1.96,6.38v7.96c0,2.4.75,4.63,2.03,6.47,1.66,7.9,43.35,14.23,94.53,14.23s93.08-6.32,94.57-14.24c1.26-1.83,2.08-4.09,2.08-6.46v-7.96Z"/>
                <path class="cls-27" d="m381.65,355.58l30.72-7.1c.66-.15,1.22.48,1,1.11l-3.5,10.18c-.18.51.16,1.05.69,1.13l29.64,4.13c.98.14.98,1.56,0,1.69l-29.64,4.13c-.53.07-.87.62-.69,1.13l3.5,10.18c.22.64-.35,1.26-1,1.11l-30.72-7.1c-.13-.03-.26-.03-.39,0l-30.72,7.1c-.66.15-1.22-.48-1-1.11l3.5-10.18c.18-.51-.16-1.05-.69-1.13l-29.64-4.13c-.98-.14-.98-1.56,0-1.69l29.64-4.13c.53-.07.87-.62.69-1.13l-3.5-10.18c-.22-.64.35-1.26,1-1.11l30.72,7.1c.13.03.26.03.39,0Z"/>
                <path class="cls-49" d="m361.37,370.06c1.61-1.42,3.59-1.81,4.43-.87s.21,2.87-1.39,4.29-5.59,3.58-6.43,2.64,1.78-4.64,3.39-6.06h0Z"/>
                <path class="cls-49" d="m401.4,370.12c-1.65-1.37-3.65-1.69-4.45-.72s-.12,2.87,1.53,4.24,5.71,3.4,6.51,2.42-1.94-4.58-3.59-5.95Z"/>
                <path class="cls-49" d="m364.24,357.38c1.86,1.07,2.85,2.83,2.22,3.93s-2.65,1.11-4.51.04-5.17-4.17-4.54-5.26,4.97.23,6.83,1.3h0Z"/>
                <path class="cls-19" d="m355.43,364.73c2.15,0,3.89.52,3.89,1.16s-1.74,1.16-3.89,1.16-6.56-.52-6.56-1.16,4.41-1.16,6.56-1.16Z"/>
                <path class="cls-49" d="m401.31,361.43c-1.65,1.37-3.65,1.69-4.45.72s-.12-2.87,1.53-4.24,5.71-3.4,6.51-2.42-1.94,4.58-3.59,5.95Z"/>
                <path class="cls-19" d="m405.91,364.72c-2.15,0-3.89.52-3.89,1.16s1.74,1.16,3.89,1.16,6.56-.52,6.56-1.16-4.41-1.16-6.56-1.16Z"/>
                <ellipse class="cls-19" cx="381.46" cy="364.85" rx="9.46" ry="2.65"/>
              </g>
            </g>
            <g>
              <g>
                <path class="cls-36" d="m387.88,282.59l28.44,25.93c.33.3-18.09-16.23-25.48-23.12-.78-.73-.03-2.01.98-1.68,0,0,3.37,1.08,8.2,2.63.8.26,1.65.53,2.53.81,4.86,1.86,9.02,4.63,14.32,4.63,1.15.23,2.31.69,3.54,1.37.72.36,1.45.69,2.19,1,3.68,1.55,7.48,2.51,11.35,2.96.78.09,1.55.16,2.33.21,9.43-.23,18.88-1.39,28.34-.46.92.23.69,2.08,1.1,3.32.08.58.14,1.22.26,1.94,3.26,8.13,8.33,15.51,1.18,23.58-.46.46-.46,1.62-.35,2.6,0,.5,0,1.01.01,1.52.08,11.65-.12,23.13-.63,28.36-.1,1-1.44,1.24-1.89.34l-13.72-27.76c-.52-1.05-2.12-.5-1.87.65.07.33.23.64.46.92l21.37,24.86c.12.14,6.48,9.53,6.57,9.69,2.94,5.04-5.35,2.27-10.61,4.73-.26.12-16.55-.59-16.84-.57l-3.42.91c-.71.19-1.5.4-2.33.67-6.97,4.3-14.81,4.53-22.69,5.96l-1.46.39c-4.21,1.12-7.15,1.89-7.15,1.89-.34.06-.69-.07-.92-.32l-5.87-6.67c-.27-.31-.71-.42-1.1-.27l-19.43,7.37c-.47,0,7.36-7.2,6.99-6.91-3.45,2.71-6.33,8.95-9.76,6.22-.32-.25-21.23-1.63-24.13-1.83-.21-.01-.41-.09-.57-.23l-7.5-6.31c-.26-.22-.61-.29-.93-.19-1.73.54-6.43,2.72-7.97,3.01-.21.04-.43.01-.62-.08,0,0-9.62-4.62-14.43-6.93l-1.94-.93c-.3-.24-.54-.24-.77-.24.69-1.15,3.92-3,1.85-3.23-8.08-.46-15.69,0-22.29-5.36-.74-.23-1.55-.45-2.4-.68l-5.11-1.41c-.98-.27-1.89-.52-2.66-.73-1.68-1.04-6.29-.58-5.14-2.19,5.54-8.08,8.08-15.69,5.07-24.68-.46-1.38,1.15-3.23,2.74-3.49.57-.16,1.2-.21,1.86-.2,3.29.08,7.46,1.95,10.63,2.12l2.18.47.87.19c.85.18-.56.25-2.83.21-.78-.02-1.65-.05-2.59-.09-1.37-.49-3.03-.56-4.77-.49-.87.03-1.76.11-2.66.21-3.11.62-6.57.85-8.81-1.67-.45-.55-.79-1.23-.99-2.1-.92-3.92,2.54-7.61.2-11.55-.16-.58-.27-1.16-.3-1.74-.18-2.91,1.43-5.85,4.02-8.15,3-2.54,6.92-3,10.38-4.84,1.62-.92,3.46-1.85,4.95-2.95.43-.3.86-.58,1.26-.86,2.85-1.94,5.17-3.38,6.24-3.79.26-.1.56-.09.81.04,0,0,5.07,2.55,11.55,5.8.5.25,1,.5,1.52.76,5.97,3.76,11.73,7.45,18.65,9.3,1.62.46,2.77,1.62,4.27,2.23.6.3,1.12.56,1.55.78.85.43,1.32.66,1.32.66.09,0-.81-.46-2.4-1.26-.53-.27-1.14-.57-1.8-.89-7.09-3.13-14.93-5.44-21.18-10.42-.5-.26-.99-.51-1.48-.75-3.87-1.92-7.3-3.64-9.56-4.81-.88-.46-.62-1.78.37-1.88l5.76-.57,2.31-.23c4.93-1.1,8.17,3.05,12.78,3.97.46,0,1.15,0,1.62-.23,3.46-2.08,6.23-6.92,10.75-4.78.73.26,1.45.55,2.18.81,2.18.8,4.37,1.44,6.68.74,3-1.15,5.31-4.15,8.43-4.61.58-.11,1.16-.17,1.72-.23,7.92-.78,13.51-1.32,13.51-1.32.17-.02.34-.08.48-.18.8-.58,1.92-.53,2.67.15h0Z"/>
                <path class="cls-37" d="m469.89,367.7l-39.35-14.86c-.59-.26-1.19-.5-1.78-.73-4.25-1.95-7.94-4.26-12.09-5.41-5.54-1.62-10.84-3.46-16.16-5.16-.49-.17-1.09-.38-1.77-.62-5.09-1.8-15.03-5.3-22.62-7.97-.48-.17-.94-.33-1.4-.49-11.11-3.29-21.49-9.06-33.18-8.14-1.01-.12-1.97-.24-2.84-.37-2.61-.39-4.39-.8-4.24-1.23h0c.15-.43,2.1-.63,4.79-.68.45,0,.91-.01,1.4-.02,4.05,0,8.66-1.62,12.12-.23,10.84,4.15,21.46,7.61,32.32,11.41l1.81.66,7.54,2.73,1.88.68c12.04,3.67,24.04,5.97,34.81,12.62l1.84.67c18.91,6.86,33.9,12.3,33.9,12.3,1.44.5,10.66,2.49,10.15,3.92l-2.08,3.46c-.5,1.44-3.62-2.03-5.06-2.54h0Z"/>
                <path class="cls-37" d="m388.85,334.8l-1.22-1.58c-.38-.5-.85-1.09-1.59-1.76-3.97-3.68-9.05-5.06-13.9-8.06-.92-.69-2.08-1.62-1.62-2.54,1.38-3.46,2.08-7.38-.59-10.29-.3-.41-.63-.85-.97-1.3-2.54-3.13-5.59-6.88-5.59-6.88,0,0-.6-.75-1.2-1.48-1.8-2.66-5.03-3.58-7.33-5.89,3.69.92,6.92,3,8.98,5.97.42.53.89,1.12,1.42,1.78l4.9,6.16c.31.39.62.78.92,1.17,3.62,3.38,1.08,7.3.62,11.23,0,.92,1.38,1.62,2.54,2.31,5.07,2.77,10.61,4.84,14.71,8.94.2.22.95.93,1.58,1.63s1.15,1.4.91,1.6l-1.48.81c-.5.4-.73-1.37-1.09-1.81h0Z"/>
                <path class="cls-37" d="m418.62,344.51c-2.88-3.82-7.26-6.36-9.11-10.74-.29-.66-.58-1.32-.87-1.98s-.59-1.3-.89-1.95c-2.4-4.38-7.7-5.53-12.09-7.37-1.15-.46-2.54-1.15-3-2.08-1.15-3.46,3.23-5.31,2.68-8.51-.2-.84-.75-1.62-.75-1.62-.34-.46-6.75-5.09-6.23-5.47h0c.51-.38,6.78,4.1,7.12,4.56,0,0,.26.37.69,1.06,1.58,2.83-.96,5.6-1.89,8.14-.23.46,0,.92.23,1.38,4.61,3.92,11.53,4.15,14.46,9.68.33.65.65,1.3.97,1.96.32.66.64,1.32.96,1.98,2.31,4.38,6.46,7.38,10.15,11.07.46.69,1.62,1.38.92,2.08-.23.46-1.85,1.62-2.08-.22-.4-.69-.91-1.58-1.28-1.96h0Z"/>
                <path class="cls-37" d="m447.37,356.94l-11.54-24.42-6.31-12.73-1.69-3.44c-.25-.51-5.23-6.44-4.8-6.66h0c.43-.21,5.3,5.55,5.55,6.05l19.07,39.21c.25.51,2.14,3.46,1.71,3.68l-1.26.29c-.43.21-.48-1.46-.73-1.97h0Z"/>
                <path class="cls-37" d="m372.95,330.14c-6.35.41-13.04.18-19.39,1.06l-2.78.16-4.21.23-14.21.43-3.83.14c-.57.02-8.17-2.17-8.15-1.53h0c.02.64,7.41,2.81,7.98,2.79,0,0,14.82-.61,27.18-1.11.59-.02,1.17-.05,1.74-.07,6.09-.3,12.33-.07,18.32-.76.92-.23-.23-.92-.53-1.71-.38-.62-1.5.35-2.12.38h0Z"/>
                <path class="cls-37" d="m413.48,345.03c-1.43,1.67-3.5,2.12-5.54,2.17l-1.53.16c-7.87.82-18.36,1.92-18.36,1.92l-14.17,1.12-3.82.32c-.57.05-8.26-1.77-8.21-1.14h0c.05.64,7.54,2.44,8.1,2.4,0,0,26.27-2.35,37.94-3.39.83-.07,1.6-.15,2.26-.22,2.13-.29,4.44-.53,5.59-2.14.69-.69-.69-1.85-1.31-2.73-.57-1.02-.63,1.23-.95,1.53h0Z"/>
                <path class="cls-37" d="m438.03,356.17l-26.02,7.24-13.76,3.56-3.71.97c-.55.14-8.3.26-8.18.73h0c.12.47,7.66.39,8.21.24l42.13-11.23c.55-.14,4.02-.64,3.9-1.11l-.61-1.14c-.12-.47-1.42.6-1.97.74h0Z"/>
              </g>
              <g>
                <path class="cls-28" d="m387.85,279.7l28.44,25.93c.33.3-18.09-16.23-25.48-23.12-.78-.73-.03-2.01.98-1.68,0,0,3.37,1.08,8.2,2.63.8.26,1.65.53,2.52.85,5.59,4.02,12.28,5.17,18.77,6.69.69.34,1.37.7,2.07,1.05,2.08,1.04,4.25,1.94,6.67,2.28,1.32.17,2.64.25,3.94.25.65,0,1.3,0,1.95-.02,9.56-.69,19.02-2.08,28.25-.23,1.56.34,1.69,2.64,1.77,4.92.03.76.05,1.52.12,2.21.41,6.25,7.56,11.56,4.79,17.55-1.62,3.23-4.61,6-4.05,9.97,0,.5,0,.99,0,1.49.02,10.38-.19,20.13-.64,24.83-.1,1-1.44,1.24-1.89.34l-13.72-27.76c-.52-1.05-2.12-.5-1.87.65.07.33.23.64.46.92l21.37,24.86c.12.14,6.48,9.53,6.57,9.69,2.94,5.04-5.35,2.27-10.61,4.73-.26.12-16.55-.59-16.84-.57l-3.42.91-2.37.63c-7.13,3.54-14.74,4.69-22.65,6.01l-1.47.39c-4.21,1.12-7.15,1.89-7.15,1.89-.34.06-.69-.07-.92-.32l-5.87-6.67c-.27-.31-.71-.42-1.1-.27l-19.43,7.37c-.47,0,7.36-7.2,6.99-6.91-3.45,2.71-6.33,8.95-9.76,6.22-.32-.25-21.23-1.63-24.13-1.83-.21-.01-.41-.09-.57-.23l-7.5-6.31c-.26-.22-.61-.29-.93-.19-1.73.54-6.43,2.72-7.97,3.01-.21.04-.43.01-.62-.08,0,0-8.08-3.88-13.14-6.3l-1.3-.62c-.83-.36-1.75-.82-2.9-1.05.92-1.15,3-2.31,2.54-2.77-3-3-7.61.69-11.53-.23-3.46-1.15-6.46-3.23-9.47-5.08-.58-.29-1.31-.51-2.12-.75l-2.57-.71c-.51-.14-1.03-.28-1.55-.43-3.45-2.03-11.06-2.03-10.14-3.42,6-7.61,5.77-15.92,2.54-23.76-.46-1.15.69-2.08,1.3-3.18.52-.53,1.11-.91,1.76-1.18,3.89-1.62,9.85.88,13.98,1.52l2.18.47.87.19c.85.18-.56.25-2.83.21-.8-.02-1.69-.05-2.67-.11-1.83-.78-4.31-.58-6.73-.31-.81.09-1.61.19-2.39.26-1.76.06-3.84.52-5.43-.93-.36-.38-.61-.89-.72-1.55-.69-3.46,1.85-7.38-.7-10.41-.32-.55-.65-1.1-.92-1.66-.53-1.12-.84-2.31-.69-3.61,1.38-7.38,10.15-8.31,15.68-12.21.47-.34.93-.66,1.38-.99,4.53-3.25,8.61-5.93,10.14-6.52.26-.1.56-.09.81.04,0,0,5.07,2.55,11.55,5.8.5.25,1,.51,1.53.79,3.91,2.47,7.15,6.39,11.76,8.01,4.38,1.38,9,1.62,12.71,4.27l1.33.67c.06,0-.33-.21-1.06-.58-.37-.19-.82-.42-1.35-.68-1.25-.68-2.4-1.6-3.78-1.6-8.31-.69-14.07-6.23-20.68-10.46-.48-.24-.96-.48-1.43-.71-3.28-1.63-6.16-3.08-8.13-4.1-.88-.46-.62-1.78.37-1.88,0,0,2.19-.21,5.76-.57l2.31-.23c4.5-.75,8.42,2.02,13.04,1.56,2.54-.23,4.38-2.08,6.69-3,1.38-.46,3-.46,4.28.03.54.15,1.07.33,1.61.51,1.61.55,3.22,1.19,4.95,1.53,1.15.23,2.31-.23,3.23-.46,3-1.38,5.31-3.69,8.63-4.3.59-.08,1.16-.15,1.73-.2,7.92-.78,13.51-1.32,13.51-1.32.17-.02.34-.08.48-.18.8-.58,1.92-.53,2.67.15h0Z"/>
                <path class="cls-20" d="m469.86,364.8l-39.35-14.86c-.61-.34-1.22-.62-1.85-.92-3.91-2.1-7.83-4.64-11.99-6.03-6.69-2.54-13.61-3.46-20.27-5.79l-1.32-.46-8.95-3.15-1.61-.57c-10.53-3.63-21.14-6.63-31.75-11.02-3.23-1.38-7.38,0-11.27-.61-1-.09-1.96-.22-2.83-.35-2.61-.39-4.39-.8-4.24-1.23h0c.15-.43,2.1-.63,4.79-.68.45,0,.91-.01,1.4-.02,4.31.12,8.93-1.96,12.62-.11,12.69,6.69,26.3,8.77,39.29,14,.64.23,1.27.45,1.89.68,13.03,2.63,25.49,5.85,36.66,13.16.64.27,1.26.52,1.87.82,18.91,6.86,33.9,12.3,33.9,12.3,1.44.5,10.66,2.49,10.15,3.92l-2.08,3.46c-.5,1.44-3.62-2.03-5.06-2.54h0Z"/>
                <path class="cls-16" d="m388.69,331.9c-3.86-3.43-8.7-5.51-13.32-7.82-1.38-.92-4.15-2.31-3.23-3.92,1.62-3.23,2.77-6.69.15-9.63,0,0-.42-.55-1.11-1.39l-5.51-6.78c-.66-.82-1.25-1.53-1.66-2.03-2.25-3.7-6.17-5.08-9.17-7.85,3.92,1.85,8.08,3.46,10.37,7.4.52.65,1.09,1.36,1.69,2.12l5.73,7.19c.34.43.69.87,1.03,1.3,3.11,2.75,1.03,5.98.11,9.21-.46,1.38.69,2.54,1.85,3.46,5.31,3.69,11.77,4.84,15.75,9.74l-1.44.82c-.5.4-.8-1.37-1.22-1.82h0Z"/>
                <path class="cls-16" d="m416.49,340.04c-2.59-2.57-5.36-5.11-6.28-8.57-.17-.61-.37-1.2-.57-1.78-.23-.57-.48-1.12-.77-1.64-3.04-4.43-8.58-4.89-12.96-7.66-.46-.23-.69-.92-.69-1.38.69-3.69,3.46-6.92.49-10.09l-1.13-1.55c-.34-.46-6.75-5.09-6.23-5.47h0c.51-.38,6.78,4.1,7.12,4.56l2.19,3.04c.26.74.6,1.54.75,2.47.73,2.65-2.27,5.65.04,7.5,3.92,3.46,9.92,4.38,12.25,9.49.32.64.63,1.28.93,1.92.3.65.6,1.3.89,1.97,1.62,3.92,6,6,8.31,9.69-.92.23-2.31,1.15-2.84-.48-.5-.72-1.1-1.63-1.48-2.02h0Z"/>
                <path class="cls-47" d="m447.34,354.04l-11.54-24.42-6.31-12.73-1.69-3.44c-.25-.51-5.23-6.44-4.8-6.66h0c.43-.21,5.3,5.55,5.55,6.05l19.07,39.21c.25.51,2.14,3.46,1.71,3.68l-1.26.29c-.43.21-.48-1.46-.73-1.97h0Z"/>
                <path class="cls-16" d="m371.28,327.3c-8.83-.91-17.37.94-25.8,1.42-.66.02-1.58.05-2.63.09-4.21.13-10.52.32-10.52.32l-3.83.14c-.57.02-8.17-2.17-8.15-1.53h0c.02.64,7.41,2.81,7.98,2.79l16.39-.67,1.78-.07c9.5-1.08,18.72-.85,28.18-1.31-.69-.46-1.15-.92-1.77-1.49-.66-.64-1.03.32-1.62.32h0Z"/>
                <path class="cls-16" d="m411.37,340.59c-.94,2.88-3.93,4.03-6.61,4.04-.54.06-1.09.12-1.64.18-7.23.75-15.11,1.58-15.11,1.58l-14.17,1.12-3.82.32c-.57.05-8.26-1.77-8.21-1.14h0c.05.64,7.54,2.44,8.1,2.4l33.74-3.01,1.49-.14c3.22.06,6.68-.87,8.29-3.86.69-1.38-.92-2.08-1.39-3.27-.45-.97-.46,1.39-.67,1.78h0Z"/>
                <path class="cls-47" d="m437.99,353.28l-26.02,7.24-13.76,3.56-3.71.97c-.55.14-8.3.26-8.18.73h0c.12.47,7.66.39,8.21.24l42.13-11.23c.55-.14,4.02-.64,3.9-1.11l-.61-1.14c-.12-.47-1.42.6-1.97.74h0Z"/>
              </g>
            </g>
            <g>
              <path class="cls-22" d="m475.64,315.34c0-2.65-.84-5.11-2.08-7.17h0c0-9.14-42.43-49.75-94.67-49.75s-94.51,40.61-94.51,49.74h0c-1.24,2.06-1.96,4.52-1.96,7.17v8.94c0,2.69.75,5.2,2.03,7.27,1.66,8.88,43.3,12.65,94.48,12.65s93.14-3.75,94.63-12.66c1.26-2.06,2.08-4.59,2.08-7.26v-8.94h0Z"/>
              <path class="cls-26" d="m303.13,312.31c1.05-.94,2.35-1.19,2.9-.57s.14,1.88-.91,2.81-3.67,2.35-4.22,1.73,1.17-3.04,2.23-3.98h0Z"/>
              <path class="cls-5" d="m443.28,319.87c1.41,0,2.55.63,2.55,1.4s-1.14,1.4-2.55,1.4-4.31-.63-4.31-1.4,2.9-1.4,4.31-1.4Z"/>
              <path class="cls-7" d="m375.35,312.02c1.41,0,2.55-.6,2.55-1.33s-1.14-1.33-2.55-1.33-4.31.6-4.31,1.33,2.9,1.33,4.31,1.33Z"/>
              <path class="cls-26" d="m421.98,302.39c.5,1.32.28,2.62-.49,2.92s-1.81-.53-2.31-1.85-.91-4.26-.13-4.56,2.44,2.17,2.94,3.49h0Z"/>
              <path class="cls-5" d="m328.91,317.71c-.5,1.32-1.48,2.17-2.21,1.89s-.91-1.56-.41-2.88c.5-1.32,2.1-3.81,2.83-3.54s.29,3.2-.21,4.52h0Z"/>
              <path class="cls-7" d="m336.45,299.12c-.5,1.32-.34,2.6.35,2.86s1.65-.6,2.15-1.92.96-4.24.27-4.5-2.27,2.24-2.77,3.56Z"/>
              <path class="cls-7" d="m358.59,287.13c-.5,1.32-.34,2.6.35,2.86s1.65-.6,2.15-1.92.96-4.24.27-4.5-2.27,2.24-2.77,3.56Z"/>
              <path class="cls-26" d="m310.25,289.6c1.05.94,2.35,1.19,2.9.57s.14-1.88-.91-2.81-3.67-2.35-4.22-1.73,1.17,3.04,2.23,3.98h0Z"/>
              <path class="cls-5" d="m386.5,331.19c1.41,0,2.55-.63,2.55-1.4s-1.14-1.4-2.55-1.4-4.31.63-4.31,1.4,2.9,1.4,4.31,1.4Z"/>
              <path class="cls-7" d="m379.71,274.67c1.41,0,2.55.6,2.55,1.33s-1.14,1.33-2.55,1.33-4.31-.6-4.31-1.33,2.9-1.33,4.31-1.33Z"/>
              <path class="cls-26" d="m426.34,284.31c.5-1.32.28-2.62-.49-2.92s-1.81.53-2.31,1.85-.91,4.26-.13,4.56,2.44-2.17,2.94-3.49h0Z"/>
              <path class="cls-5" d="m339.03,274.75c-.5-1.32-1.48-2.17-2.21-1.89s-.91,1.56-.41,2.88,2.1,3.81,2.83,3.54.29-3.2-.21-4.52h0Z"/>
              <path class="cls-7" d="m351.65,324.25c-.5-1.32-.34-2.6.35-2.86s1.65.6,2.15,1.92.96,4.24.27,4.5-2.27-2.24-2.77-3.56Z"/>
              <path class="cls-26" d="m364,266.71c1.05-.94,2.35-1.19,2.9-.57s.14,1.88-.91,2.81-3.67,2.35-4.22,1.73,1.17-3.04,2.23-3.98h0Z"/>
              <path class="cls-5" d="m454.56,307.95c1.41,0,2.55.63,2.55,1.4s-1.14,1.4-2.55,1.4-4.31-.63-4.31-1.4,2.9-1.4,4.31-1.4Z"/>
              <path class="cls-7" d="m392.39,291.34c1.41,0,2.55-.6,2.55-1.33s-1.14-1.33-2.55-1.33-4.31.6-4.31,1.33,2.9,1.33,4.31,1.33Z"/>
              <path class="cls-26" d="m451.71,289.77c.5,1.32.28,2.62-.49,2.92s-1.81-.53-2.31-1.85-.91-4.26-.13-4.56,2.44,2.17,2.94,3.49h0Z"/>
              <path class="cls-5" d="m405.48,317.79c-.5,1.32-1.48,2.17-2.21,1.89s-.91-1.56-.41-2.88,2.1-3.81,2.83-3.54.29,3.2-.21,4.52h0Z"/>
              <path class="cls-7" d="m397.09,276.36c-.5,1.32-.34,2.6.35,2.86s1.65-.6,2.15-1.92.96-4.24.27-4.5-2.27,2.24-2.77,3.56Z"/>
            </g>
          </g>
          <g>
            <path class="cls-18" d="m267.41,289.77c-1.29,1.31-1.92,1.98-3.19,3.33-2.19,2.39-3.75,4.22-4.66,5.41-.81,1.06-1.39,1.85-1.77,2.3-.91,1.09-1.86,1.79-2.85,2.07-.97.27-1.79.16-2.44-.35-.42-.33-.65-.72-.7-1.15s.05-1.32.31-2.67c.15-.78,0-1.54-.46-2.26s-1.61-2.09-3.45-4.05c-3.52-3.74-7.41-7.18-11.3-10.52-1.69-1.45-2.98-2.25-3.82-2.39s-1.97.24-3.35,1.19c-1.59,1.09-2.79,1.36-3.6.72-.66-.53-.85-1.4-.55-2.63.3-1.23,1.02-2.53,2.17-3.9.63-.75,1.47-1.69,2.51-2.79,1.72-1.84,3.57-3.84,5.55-5.95,2.85-3.03,5.76-6.03,8.72-8.95,1.37-1.35,2.67-2.54,3.83-3.58,2.77-2.47,5.19-4.22,7.19-5.33,2-1.1,3.96-1.76,5.85-1.98,3.08-.37,5.39.59,6.96,2.74.78,1.07,1.24,2.33,1.39,3.78.15,1.45-.04,2.85-.57,4.2-.38.97-.42,1.63-.15,1.98.3.38.96.37,1.99-.02,2.01-.75,4.14-1.01,6.34-.75,2.27.26,4.07,1.39,5.41,3.31,1.58,2.26,1.97,5.05,1.43,8.28-.82,4.88-4.46,9.08-8.07,12.24-.63.55-2.21,1.85-4.66,4.03-2.24,1.98-3.59,3.26-4.09,3.73h0Zm-20.03-24.01c1.65,1.7,2.47,2.55,4.12,4.25.65.67,1.23,1.03,1.73,1.08s1.03-.21,1.62-.76c1.38-1.32,2.12-2.58,2.2-3.84.08-1.26-.48-2.58-1.72-3.96-1.2-1.34-2.49-2.06-3.87-2.14-1.38-.07-2.74.5-4.05,1.75-.69.66-1.04,1.26-1.05,1.78,0,.53.33,1.14,1.01,1.84Zm11.53,11.87c.76.78,1.14,1.17,1.9,1.96,1.75,1.8,3.07,2.83,3.97,3.11s1.83-.05,2.82-.98c2.6-2.44,2.67-4.88.57-7.43-2.35-2.86-6.25-3.16-8.9-.5-.75.76-1.23,1.42-1.28,1.98-.05.56.25,1.18.92,1.87h0Z"/>
            <path class="cls-18" d="m326.61,225.4c.85,2.67,1.28,4,2.14,6.67,1.29,4.03,1.84,7,1.68,8.9-.48,4.56-3.51,8.35-7.01,11.09-2.68,2.26-6.03,4.27-9.2,5.66-5.44,2.4-10.92,4.33-17.01,4.12-2.54-.14-4.68-.76-6.4-1.91-1.72-1.15-3.57-3.21-5.52-6.22-.76-1.17-1.96-3.15-3.59-5.89-1.16-1.94-1.94-3.22-2.34-3.83-.86-1.34-1.6-2.17-2.21-2.51-.61-.34-1.52-.43-2.74-.26-1.91.28-3.15.03-3.73-.81-.42-.62-.42-1.42,0-2.4s1.22-1.98,2.35-2.97c2.61-2.28,5.68-4.42,8.69-6.07,3.23-1.78,6.54-3.53,10.09-4.66,2.76-.88,4.51-.55,5.22.91.35.73.26,1.48-.26,2.26-.11.18-.69.79-1.71,1.84-.62.62-.91,1.31-.84,2.08.06.77.48,1.87,1.21,3.32,1.64,3.19,3.17,6.47,4.71,9.72,1.42,2.98,3.56,4.68,6.34,5.23,2.28.45,4.68.08,7.28-1.08,1.65-.74,3.05-1.64,4.2-2.72s1.9-2.23,2.28-3.41c.3-.91.41-1.85.3-2.79-.11-.94-.45-2.15-1.01-3.64-.9-2.36-1.35-3.54-2.25-5.91-1.84-4.48-3.03-7.07-3.56-7.76s-1.55-1.01-3.05-.92c-1.41.08-2.43.07-3.03-.07-.6-.15-1-.46-1.21-.96-.44-1.06.1-2.2,1.67-3.4s4.33-2.57,8.31-3.96c3.9-1.37,6.83-2,8.74-2.03s3.02.51,3.33,1.59c.16.53.12.97-.11,1.32-.23.34-.89.97-1.99,1.88-1.14.95-1.7,1.77-1.68,2.46s.65,3.06,1.9,7.13h0Z"/>
            <path class="cls-18" d="m346.77,204.93c2.95-.53,5.81-.82,8.5-.82,3.62,0,5.52.91,5.72,2.58.07.55-.06.98-.37,1.3-.31.32-1.14.83-2.47,1.54-1.1.59-1.73,1.66-1.88,3.19s.1,4.45.75,8.71c.68,4.44,1.21,9.04,2.64,13.34.23.53.53.91.89,1.16.36.25.96.49,1.79.73,1.52.38,2.34,1.13,2.47,2.21.18,1.52-1,2.71-3.5,3.64-3.2,1.19-6.77,1.96-10.02,2.67-2.62.57-9.86,2.18-11.08-1.02-.28-.73.23-1.79,1.42-2.87.9-.82,1.36-1.76,1.3-2.76-.29-4.52-1.61-9.19-2.68-13.65-1.14-4.75-2.22-7.74-3.2-8.92-.54-.68-1.56-1.14-3.01-1.42-1.14-.22-1.95-.46-2.39-.7-.44-.24-.73-.61-.88-1.13-.22-.79.13-1.57,1.05-2.33s2.72-1.66,5.29-2.68c3.04-1.21,6.44-2.2,9.67-2.78h0Z"/>
            <path class="cls-18" d="m388.39,214.6c-.08,4.39-.16,8.79-.24,13.18-.05,2.97.21,4.9.8,5.76.7,1.03,2.23,1.57,4.57,1.69,2.51.12,4.53-.2,6.07-1.03,1.55-.83,2.74-2.22,3.52-4.17.48-1.19,1.32-1.74,2.53-1.6s2.15.72,2.8,1.72.85,2.23.65,3.67c-.33,2.35-1.71,4.71-3.99,7.16-.72.78-1.33,1.3-1.83,1.57s-1.07.36-1.73.3c-2.78-.59-4.18-.86-6.99-1.33-7.47-.34-14.85-.27-22.31.2-1.46.11-2.51.05-3.13-.2-.91-.36-1.42-.97-1.51-1.84-.05-.53.05-.94.32-1.23s.94-.73,2.03-1.3c1.19-.62,1.95-1.41,2.23-2.37.23-.8.21-3.1-.05-6.88-.12-1.76-.36-4.29-.72-7.58-.34-3.16-.61-5.55-.74-7.15-.12-1.51-.34-2.56-.71-3.1s-1.06-.89-2.1-1.06c-1.71-.3-2.83-.54-3.31-.76-.87-.39-1.34-.89-1.4-1.5-.15-1.39,1.3-2.63,4.41-3.62,3.5-1.12,7.24-1.39,10.83-1.57,3.75-.19,7.73-.11,11.46.53,3.22.56,4.82,1.72,4.74,3.27-.03.63-.27,1.09-.71,1.37-.44.29-1.49.65-3.14,1.12-.98.3-1.6.84-1.87,1.62-.27.78-.43,2.49-.48,5.13h0Z"/>
            <path class="cls-18" d="m421.89,245.35c-.9-.21-1.35-.3-2.26-.5-1.32-.28-2.81-.53-4.46-.71-1.04-.11-1.76-.2-2.16-.27-1.41-.24-2.51-.71-3.31-1.43-.8-.72-1.14-1.55-1-2.5.09-.66.37-1.15.82-1.46s1.17-.53,2.11-.6c.89-.07,1.54-.26,1.92-.64s.78-1.16,1.15-2.35c.43-1.37,1.08-4.12,1.94-8.17.85-4.03,1.65-8.1,2.38-12.15.28-1.58.3-2.67.07-3.25s-.95-1.14-2.1-1.66c-1.67-.75-2.43-1.74-2.26-2.93.14-.93.86-1.56,2.18-1.89,1.32-.33,3.09-.31,5.3.1.73.13,1.59.3,2.57.52,2.16.48,3.74.85,4.72,1.07,4.18.91,8.36,1.89,12.51,2.9.98.24,2.23.56,3.65,1.02,4.57,1.48,9.17,3.21,13.14,6.12,3.81,2.79,6.79,6.85,7.83,11.45.91,4-.18,7.95-1.67,11.46-.8,1.9-2.23,3.74-3.85,5.38s-3.34,2.92-5.15,3.86c-3.83,1.92-8.16,2.57-12.41,2.24-2.7-.19-5.41-.73-8.19-1.61-1.47-.51-2.21-.76-3.68-1.24-1.27-.41-1.91-.6-3.19-.98-2.48-.75-4.69-1.32-6.6-1.76h0Zm14.7-28.42c-1.94,7.15-3.88,14.3-5.83,21.46-.32,1.16-.25,2.07.2,2.72.44.65,1.35,1.15,2.67,1.55,6.8,2.09,11.45-3.1,13.55-9,1.23-3.46,2.18-7.48,1.25-11.12-.94-3.7-4.45-6.03-7.98-6.99-1.18-.32-2.08-.4-2.65-.18s-.98.75-1.21,1.58h0Z"/>
            <path class="cls-18" d="m521.51,281.16c-1.19,4.39-2.51,8.75-3.98,13.06-.39,1.2-.58,2.07-.55,2.62s.27,1.21.75,1.97c.93,1.48.93,2.6,0,3.34-1.1.87-2.56.67-4.31-.54-2.71-1.88-5.02-4.55-7.28-6.95-2.6-2.77-5.32-5.56-7.68-8.53-.71-.89-1.14-1.77-1.28-2.61-.14-.84.03-1.54.53-2.1.38-.43.81-.64,1.29-.63.48,0,1.17.24,2.07.71,1.01.52,1.77.53,2.26,0,.88-.94.7-2.17-.57-3.63-1.36-1.57-3.48-3.61-6.36-5.99-2.42-2.01-4-3.02-4.68-3.15-.41-.08-.88,0-1.41.22-.53.23-.92.53-1.2.89-.25.34-.34.61-.26.83s.46.78,1.14,1.66c.87,1.13,1,2.31.36,2.92-2.37,2.24-7.17-1.23-9.69-3.04-2.89-2.08-5-3.67-6.16-4.93-1.08-1.16-1.28-2.32-.56-3.48.31-.5.7-.8,1.17-.89.47-.09,1.16,0,2.06.25,1.47.43,2.75.53,3.83.3,1.08-.23,2.94-1.03,5.63-2.33,3.07-1.49,6.2-2.9,9.35-4.21,3.5-1.46,6.06-2.56,7.59-3.42s2.8-1.88,3.77-3.09c1.03-1.28,1.85-2.1,2.45-2.44.6-.34,1.44-.48,2.53-.39,2.32.14,4.64,1.17,6.91,3.13,2.14,1.84,3.72,4.27,4.5,7.08,2.03,7.38-.42,16.05-2.24,23.37h.01Zm-21.57-15.38c2.24,1.83,3.34,2.77,5.52,4.7,1,.89,1.65,1.17,1.96.83.42-.47.78-2.25.97-5.36.09-1.42.08-2.43-.02-3.03-.1-.59-.35-1.06-.75-1.39-.71-.6-1.71-.6-3,0-.19.07-.91.36-2.14.88-2.05.85-3.18,1.45-3.42,1.75-.3.37,0,.91.87,1.63h0Z"/>
          </g>
        </g>
      </g>
    </g>
  </g>
</svg>