<?xml version="1.0" encoding="UTF-8"?>
<svg id="Layer_2" data-name="Layer 2" xmlns="http://www.w3.org/2000/svg" viewBox="0 0 750 750">
  <defs>
    <style>
      .cls-1 {
        fill: #fa6060;
      }

      .cls-2 {
        fill: #fff;
      }

      .cls-3 {
        fill: #fac25f;
        stroke: #000;
        stroke-miterlimit: 10;
        stroke-width: 1.49px;
      }
    </style>
  </defs>
  <g id="Layer_1-2" data-name="Layer 1">
    <circle class="cls-1" cx="375" cy="375" r="375"/>
    <circle class="cls-2" cx="373.93" cy="381.44" r="260.13"/>
    <g id="Layer_1-2" data-name="Layer 1-2">
      <g>
        <g>
          <ellipse class="cls-1" cx="356.24" cy="361.79" rx="47.55" ry="36.23"/>
          <g>
            <g>
              <path class="cls-1" d="m318.57,342.55c-23.02-6.05-68.21-37.66-81.23-57.59-7.7-11.79-12.73-27.17-6.48-39.79,9.8-19.77,38.81-19.41,55.28-34.1,4.23-3.77,7.55-8.5,11.89-12.12,7.26-6.05,16.82-8.59,26.14-10.17,6.93-1.18,14.76-1.71,20.29,2.66,3.68,2.91,5.62,7.47,7.17,11.89,13.42,37.89,15.8,82.87,13.65,123.01"/>
              <path d="m318.87,341.46c-9.84-2.63-19.07-7.7-27.76-12.86-10.7-6.36-20.97-13.54-30.58-21.45-7.85-6.46-15.86-13.49-21.65-21.93-7.8-11.41-13.69-27.65-6.37-40.71,5.6-9.99,16.85-14.51,26.99-18.45,11.02-4.27,22.17-8.38,30.49-17.16,2.63-2.76,5.04-5.74,7.88-8.29s6.26-4.63,9.84-6.17c6.91-3,14.9-4.75,22.42-5.27,3.52-.24,7.17-.09,10.48,1.28,3.56,1.48,5.99,4.33,7.71,7.7,3.41,6.67,5.33,14.43,7.25,21.65,8.17,30.9,10.08,63.29,9.12,95.14-.12,3.8-.27,7.59-.48,11.38-.08,1.45,2.19,1.45,2.26,0,1.75-32.95.62-66.49-6.67-98.8-1.8-7.99-4-15.88-6.7-23.61-2.29-6.6-5.28-13.21-12.27-15.82s-14.48-1.03-21.27.39c-7.52,1.57-15.03,4.03-21.18,8.77s-10.19,11.34-16.48,15.76c-4.94,3.47-10.51,5.95-16.11,8.18-10.55,4.21-22.4,7.64-30.57,15.99-10.16,10.39-9.75,25.27-4.39,37.92,4.54,10.73,12,19.26,20.51,27.05,9.34,8.54,19.55,16.18,30.14,23.1,9.65,6.29,19.77,12.21,30.57,16.35,2.05.78,4.12,1.48,6.25,2.05,1.4.38,2.01-1.81.6-2.19h-.03Z"/>
            </g>
            <g>
              <path class="cls-1" d="m366.81,326.32c11.55-36.03,29.12-76.95,46.39-110.6,4.6-8.97,9.51-17.98,16.65-25.1s16.89-12.23,26.94-11.59c3.7.23,7.46,1.28,10.33,3.64,2.81,2.29,4.56,5.62,6.11,8.89,7.22,15.22,14.51,34.05,31.05,37.22,6.32,1.21,12.95-.27,19.22,1.21,13.21,3.11,19.88,17.68,23.52,30.75,4.08,14.66,6.42,31.47-1.92,44.2-5.74,8.76-15.5,13.89-24.97,18.33-26.34,12.38-55.25,22.58-84.06,18.43-17.31-2.49-37.01-6.04-51.14,4.27"/>
              <path d="m367.9,326.62c11.4-35.52,26.1-70.09,42.78-103.43,7.68-15.37,15.9-33.33,32.67-40.56,7.73-3.34,18.87-4.38,24.91,2.7,2.58,3.03,4.09,6.9,5.75,10.48,1.55,3.34,3.11,6.69,4.79,9.96,3.11,6.08,6.7,12.15,11.71,16.88,5.01,4.72,11.47,7.47,18.58,7.71,4.88.17,9.86-.45,14.63.8,3.34.88,6.4,2.6,8.97,4.89,5.42,4.85,8.8,11.67,11.22,18.42,2.76,7.73,4.77,15.96,5.48,24.14s-.14,17.28-4.59,24.68-11.49,11.97-18.78,15.79c-8.24,4.32-16.86,8.06-25.53,11.41-17.83,6.91-36.83,11.83-56.09,10.84-16.62-.86-33.53-6.52-50.01-1.34-3.58,1.13-6.96,2.78-10.01,4.97-1.18.85-.05,2.81,1.15,1.96,14.55-10.4,33.86-6.48,50.27-4.17,19.41,2.75,38.96-.85,57.35-7.16,9.3-3.2,18.37-7.06,27.28-11.25,7.5-3.52,15.1-7.35,21.06-13.24,12.69-12.54,11.64-31.14,7.62-47.16-3.32-13.28-9.28-30.16-23.77-34.69-8.5-2.66-17.71.51-25.99-3.28-6.6-3.02-11.31-8.88-14.99-14.93-3.91-6.42-6.85-13.34-10.08-20.11-1.72-3.62-3.71-7.26-7-9.68-3.29-2.42-7.58-3.35-11.65-3.44-18.45-.35-31.38,15.37-39.52,30.02-9.24,16.63-17.19,34.1-24.83,51.52-7.64,17.42-14.88,35.52-21.21,53.71-1.49,4.3-2.94,8.6-4.33,12.94-.45,1.39,1.74,1.99,2.19.6h.02Z"/>
            </g>
            <g>
              <path class="cls-1" d="m384.92,345.94c15.85-6.97,34.9-4.44,49.84,4.33,6.73,3.95,16.44,9.36,24.12,10.76,16.6,3.02,19.61,5.25,36.23,6.04,17.07.8,34.75-7.41,50.76-1.43,10.36,3.86,16.95,14.93,17.48,25.98s-4.24,21.83-11.13,30.48c-4.26,5.36-9.46,10.26-11.62,16.76-4.17,12.5,4.3,26.31,1.16,39.1-3.83,15.64-22.54,22.17-38.6,23.22-7.71.5-15.62.32-22.88-2.29-18.66-6.69-24.74-29.22-38.07-43.88-19.55-21.5-42.19-33.57-63.32-60.74"/>
              <path d="m385.48,346.92c8.15-3.52,17.15-4.51,25.92-3.44,8.77,1.07,16.94,4.42,24.64,8.86,7.02,4.05,14.51,8.23,22.54,9.78,7.22,1.4,14.37,3.26,21.62,4.54,8.15,1.43,16.57,2.04,24.82,1.16,9.21-.97,18.31-3.28,27.61-3.26,8.69.02,17.06,2.48,22.78,9.33,5.19,6.22,7.4,14.45,6.72,22.46-.78,9.25-5.15,17.99-10.88,25.16-5.06,6.31-11.23,12.15-12.57,20.51-1.34,8.36,1.52,16.76,2.42,25.1.85,7.83-.72,15.31-6.4,21.03-5.03,5.07-11.86,8.03-18.67,9.81-7.89,2.07-16.33,2.73-24.45,2.07s-15.88-3.46-21.98-9.18c-5.19-4.88-9.07-10.94-12.82-16.95s-7.47-12.29-12.08-17.81c-5.27-6.31-11.44-11.94-17.62-17.34-12.8-11.2-26.27-21.59-37.86-34.11-3.34-3.61-6.51-7.35-9.52-11.22-.89-1.15-2.49.47-1.6,1.6,11.58,14.82,25.66,26.94,39.99,39.01,6.58,5.54,13.1,11.17,19.14,17.3,5.66,5.75,10.31,12,14.58,18.84,7.5,12.02,15.1,25.65,29.48,30.21,8.57,2.72,18.1,2.57,26.93,1.39,7.26-.97,14.57-2.94,20.95-6.63,5.8-3.34,10.7-8.21,13-14.58,2.99-8.26.65-17.03-.74-25.36-.75-4.51-1.31-9.24-.35-13.77s3.46-8.3,6.31-11.8,5.66-6.52,8.12-10.07c2.61-3.76,4.8-7.83,6.39-12.14,2.97-8.06,3.65-17.04.75-25.22-2.51-7.03-7.41-13.4-14.2-16.71-8.21-3.99-17.72-3.55-26.52-2.37-9.66,1.3-19.11,3.26-28.92,2.69-7.49-.44-14.69-1.78-21.99-3.44-4.27-.97-8.57-1.71-12.85-2.66s-8.33-2.72-12.24-4.63c-7.8-3.85-14.94-8.79-23.31-11.46-8.36-2.67-17.47-3.55-26.22-2.19-4.17.65-8.18,1.86-12.05,3.52-1.33.57-.18,2.52,1.15,1.96h0l.02.02Z"/>
            </g>
            <g>
              <path class="cls-1" d="m378.42,394.19c.23,19.56,10.45,38.73,26.57,49.81,6.19,4.26,13.15,7.38,18.84,12.27,9.81,8.47,14.66,21.19,18.76,33.48,3.28,9.81,6.31,20.45,3.15,30.3-4.03,12.59-17.96,20.35-31.17,19.77-15.58-.69-29.87-10.94-45.44-9.96-14.42.91-29.34,11.25-42.15,4.53-6.73-3.53-10.54-11.06-11.88-18.54-1.95-10.78.29-21.81,2.54-32.53,6.08-29.21,8.36-64.4,14.46-93.6"/>
              <path d="m377.29,394.19c.21,12.8,4.45,25.41,11.93,35.81,3.61,5.04,7.92,9.52,12.86,13.28,5.71,4.35,12.26,7.35,18.07,11.53,11.65,8.39,16.98,22.1,21.36,35.25,2.43,7.28,4.79,14.9,4.41,22.66-.33,6.67-3.05,12.79-7.89,17.39-4.41,4.18-10.11,6.91-16.08,8.05-6.7,1.28-13.43.09-19.91-1.8-6.48-1.89-13.04-4.59-19.77-6.23-6.73-1.65-13.06-1.87-19.68-.47-11.99,2.54-27.44,11.02-38.4,1.43-11.62-10.16-9.18-28.71-6.55-42.1,2.84-14.51,5.27-29,7.22-43.65s3.76-30.02,6.36-44.92c.6-3.47,1.27-6.94,1.98-10.4.3-1.42-1.89-2.02-2.19-.6-6.25,30.11-7.94,60.95-13.95,91.11-2.9,14.58-7.11,31.17.18,45.18,2.87,5.51,7.62,9.87,13.74,11.4,6.11,1.52,12.98.06,19.14-1.68,6.84-1.93,13.71-4.45,20.89-4.5,7.19-.05,14.33,2.26,21.15,4.59,6.82,2.32,13.46,4.66,20.56,5.31,6.07.56,12.15-.51,17.71-3s10.13-6.2,13.37-11.11c3.92-5.95,4.95-13.15,4.15-20.12-.86-7.47-3.34-14.7-5.84-21.77-2.34-6.6-5-13.16-8.77-19.08s-8.47-10.6-14.23-14.39c-6.31-4.14-13.09-7.43-18.79-12.44-10.19-8.95-17.19-21.34-19.74-34.66-.63-3.32-.95-6.69-1.01-10.07-.03-1.45-2.29-1.46-2.26,0h.03Z"/>
            </g>
            <g>
              <path class="cls-1" d="m332.09,389.72c-7.58,18.37-24.79,35.65-36.59,51.64-11.8,15.99-28.32,29.37-47.79,33.35-12.69,2.6-28.5-.6-33.63-12.51-5.99-13.92,5.55-32.65-4.33-44.14-5.19-6.04-14.02-6.91-21.86-8.35s-16.74-5.12-18.43-12.91c-.74-3.46.15-7.05,1.37-10.36,8.14-22.05,30.39-36.45,53.35-41.51,22.96-5.06,46.82-2.34,70.16.48,7.68.94,15.96,1.77,22.73-1.96"/>
              <path d="m330.99,389.42c-5.87,14.04-16.03,25.9-25.56,37.56-8.92,10.91-16.8,22.69-27.79,31.7-10.4,8.53-23.73,15.44-37.42,15.74-11.82.26-24.68-4.95-26.55-17.93-1.71-11.76,4.97-25-.98-36.11-6.55-12.23-22.45-9.37-33.3-14.4-2.69-1.24-5.3-2.94-7.03-5.39-2.25-3.17-2.39-6.99-1.45-10.66,1.66-6.48,5.21-12.65,9.34-17.86,8.24-10.39,19.82-17.87,32.17-22.48,14.87-5.55,30.94-6.78,46.7-6.23,8.42.29,16.82,1.09,25.19,2.02,7.76.88,15.79,2.54,23.61,1.83,3.41-.3,6.69-1.16,9.72-2.76,1.28-.68.15-2.64-1.15-1.96-7.26,3.85-15.79,2.58-23.59,1.65-8.85-1.07-17.71-2.1-26.6-2.67-16.51-1.07-33.53-.65-49.45,4.24-12.83,3.94-25.07,10.72-34.43,20.45-4.54,4.72-8.39,10.17-11.11,16.15s-5.12,13.43-.92,19.43c8.02,11.43,24.15,7.43,34.84,14.01,12.48,7.67,5.84,24.71,5.87,36.36,0,6.04,1.57,11.96,5.81,16.42,3.97,4.18,9.57,6.52,15.17,7.52,13.15,2.34,26.67-2.23,37.81-9.09,6.13-3.77,11.74-8.38,16.79-13.51,5.04-5.13,9.31-11.08,13.83-16.8,9.59-12.17,20.2-23.71,27.97-37.18,1.77-3.05,3.34-6.2,4.69-9.45.56-1.34-1.63-1.93-2.19-.6h0Z"/>
            </g>
          </g>
        </g>
        <circle class="cls-3" cx="356.62" cy="361.41" r="23.02" transform="translate(-32.98 687.01) rotate(-85.27)"/>
        <g>
          <path class="cls-1" d="m331.2,333.4c-10.25-18.88-25.62-34.98-44.02-46.09"/>
          <path d="m332.18,332.82c-10.43-19.08-25.84-35.2-44.42-46.49-1.25-.75-2.39,1.19-1.15,1.96,18.27,11.09,33.38,26.93,43.61,45.69.69,1.28,2.66.14,1.96-1.15h0v-.02Z"/>
        </g>
        <g>
          <path class="cls-1" d="m341.56,330.03c.12-3.19-1.19-6.22-2.52-9.1-4.77-10.48-9.81-20.83-15.1-31.07-2.11-4.08-4.41-8.29-8.2-10.87"/>
          <path d="m342.69,330.03c.03-4.89-2.51-9.37-4.51-13.69-2.26-4.89-4.59-9.75-6.97-14.6s-4.65-9.43-7.14-14.05c-1.99-3.71-4.29-7.2-7.76-9.68-1.19-.85-2.32,1.12-1.15,1.96,3.47,2.48,5.57,6.23,7.5,9.93,2.25,4.3,4.42,8.63,6.57,13s4.18,8.59,6.19,12.92,5.01,9.21,4.98,14.2c0,1.46,2.25,1.46,2.26,0h.03Z"/>
        </g>
        <g>
          <path class="cls-1" d="m381.8,330.74c-.97-5.71,2.58-11.09,5.96-15.79,2.69-3.74,5.4-7.52,8.79-10.64,2.6-2.39,5.54-4.36,8.48-6.32,6.67-4.45,13.34-8.92,20.02-13.37"/>
          <path d="m382.9,330.44c-.75-5.37,2.51-10.22,5.46-14.39s5.9-8.26,9.74-11.61c4.03-3.52,8.71-6.29,13.15-9.25,4.8-3.2,9.6-6.42,14.39-9.62,1.21-.8.08-2.76-1.15-1.96-5.21,3.49-10.43,6.96-15.64,10.45-4.72,3.15-9.72,6.13-13.8,10.11-3.8,3.71-6.97,8.2-9.93,12.6-2.96,4.41-5.13,8.98-4.39,14.25.2,1.43,2.39.83,2.19-.6h0l-.02.02Z"/>
        </g>
        <g>
          <path class="cls-1" d="m385.42,381.93c10.17,2.45,20.51,4.97,29.53,10.26,9.01,5.3,16.66,13.93,18.22,24.27"/>
          <path d="m385.12,383.02c10.55,2.54,21.47,5.12,30.72,11.05,8.06,5.16,14.69,13.04,16.24,22.7.23,1.43,2.42.83,2.19-.6-1.58-9.83-8.24-17.96-16.33-23.43-9.6-6.48-21.12-9.24-32.21-11.91-1.42-.35-2.02,1.84-.6,2.19h0Z"/>
        </g>
        <g>
          <path class="cls-1" d="m389.47,334.85c10.19-15.25,27.01-25.1,44.61-30.21,4.79-1.39,9.93-2.46,14.72-1.04"/>
          <path d="m390.45,335.42c6.19-9.16,14.79-16.38,24.45-21.69,4.79-2.63,9.8-4.8,14.96-6.57,5.89-2.01,12.42-4.15,18.64-2.48,1.4.38,2.01-1.8.6-2.19-6.28-1.71-12.73.14-18.72,2.1-5.55,1.81-10.97,4.11-16.11,6.88-10.2,5.52-19.26,13.13-25.78,22.79-.82,1.21,1.15,2.34,1.96,1.15h-.02Z"/>
        </g>
        <g>
          <path class="cls-1" d="m393.09,368.57c11.26-2.48,23.8,2.35,30.48,11.76"/>
          <path d="m393.39,369.66c10.85-2.29,22.7,2.25,29.21,11.23.85,1.16,2.81.05,1.96-1.15-7.14-9.86-19.85-14.79-31.76-12.27-1.42.3-.82,2.49.6,2.19h-.02Z"/>
        </g>
        <g>
          <path class="cls-1" d="m395.13,359.92c11.67-.56,23.46,1.69,34.08,6.52"/>
          <path d="m395.13,361.05c11.5-.51,23,1.65,33.51,6.37,1.31.59,2.48-1.36,1.15-1.96-10.88-4.89-22.73-7.2-34.66-6.67-1.45.06-1.46,2.32,0,2.26h0Z"/>
        </g>
        <path d="m345.19,407.41v18.13c0,1.46,2.26,1.46,2.26,0v-18.13c0-1.46-2.26-1.46-2.26,0h0Z"/>
        <g>
          <path class="cls-1" d="m359.61,410.2c-.3,17.66-.09,35.34.63,52.98"/>
          <path d="m358.48,410.2c-.29,17.66-.08,35.34.63,52.98.06,1.45,2.32,1.46,2.26,0-.71-17.65-.92-35.32-.63-52.98.03-1.46-2.23-1.46-2.26,0h0Z"/>
        </g>
        <g>
          <path class="cls-1" d="m368.98,412.28c-.11,9.34.77,18.7,2.6,27.87"/>
          <path d="m367.85,412.28c-.09,9.45.8,18.88,2.64,28.17.29,1.43,2.46.83,2.19-.6-1.8-9.09-2.64-18.31-2.55-27.56,0-1.46-2.25-1.46-2.26,0h-.02Z"/>
        </g>
        <g>
          <path class="cls-1" d="m324.7,381.07c-11.11-1.55-22.81,1.63-31.59,8.62"/>
          <path d="m324.7,379.94c-11.52-1.54-23.26,1.8-32.39,8.94-1.15.91.47,2.49,1.6,1.6,8.66-6.79,19.91-9.74,30.79-8.29,1.43.2,1.42-2.07,0-2.26h0v.02Z"/>
        </g>
        <g>
          <path class="cls-1" d="m319.82,372.06c-10.72-1.09-21.57-.66-32.17,1.24"/>
          <path d="m319.82,370.92c-10.84-1.06-21.74-.62-32.47,1.28-1.43.26-.83,2.43.6,2.19,10.52-1.86,21.24-2.25,31.87-1.19,1.45.14,1.43-2.13,0-2.26h0v-.02Z"/>
        </g>
      </g>
    </g>
  </g>
</svg>