<?xml version="1.0" encoding="UTF-8"?>
<svg id="Layer_2" data-name="Layer 2" xmlns="http://www.w3.org/2000/svg" viewBox="0 0 750 750">
  <defs>
    <style>
      .cls-1 {
        fill: #fff;
      }
    </style>
  </defs>
  <g id="Layer_1-2" data-name="Layer 1">
    <g>
      <circle cx="375" cy="375" r="375"/>
      <circle class="cls-1" cx="375" cy="375" r="260.13"/>
      <g>
        <g>
          <polyline points="275.28 261.38 195.9 264.29 264.33 404.77 283.94 403.85 367.81 257.9 286.42 259.84 285.85 292.26 311.56 291.33 278.41 346.47 250.22 295.36 274.61 294.43 275.28 261.38"/>
          <path class="cls-1" d="m263.48,406.21l-69.77-143.23,82.99-3.04-.73,35.84-23.45.89,25.93,47.02,30.58-50.87-24.61.89.63-35.23,85.19-2.03-1.23,2.15-84.25,146.61-21.29,1Zm-65.38-140.61l67.09,137.73,17.93-.84,82.25-143.14-77.57,1.85-.53,29.61,26.81-.97-35.72,59.43-30.45-55.22,25.34-.96.61-30.26-75.76,2.77Z"/>
        </g>
        <g>
          <path d="m393.82,257.71c6.36-.86,11.13-2.01,11.77-2.17,5.76-1.44,12.75-7.2,14.25-14.87,1.9-9.71-5.5-20.05-13.94-22.31-6.77-1.81-14.54,1.15-22,6.2-6.56,4.44-13.97,12.21-14.41,12.24-.26.02,5.38-6.66,5.73-7.59,2.74-7.3,3.17-19.98-4.03-26.02-7.03-5.9-17.61-2.4-18.28-2.17-13.17,4.57-18.1,21.32-16.73,32.22.36,2.87,1.11,8.82,5.58,12.7.64.56,1.44,1.02,2.31,1.41-.48-.19-.99-.4-1.54-.64-3.02-1.3-2.56-3.56-4.96-4.03-3.99-.77-10.44.95-14.1,2.01-10.07,2.94-14.88,7.52-16.11,11.15-2.07,6.14,1.58,13.94,6.82,17.35,5.13,3.34,11.98,2.59,16.72,2.07,1.34-.15,2.49-.59,3.42-.52.55.04,1.1.03,1.65,0-.29.06-.59.11-.88.16-4.03.62-6.47,3.65-7.44,5.27-1.86,3.1-3.69,5-2.94,14.72.15,2.01,2.22,6.86,8.36,9.29,7.67,3.04,15.52-2.58,20.14-5.89,2.41-1.72,9.36-6.7,12.08-15.49,2.11-6.82.77-12.97,1.24-13.01.61-.05-.23,10.51,5.58,20.14,1.45,2.4,5.52,8.96,13.63,12.08.66.25,14.77,5.45,23.86-3.1,4.89-4.6,5.66-10.66,5.89-12.7,1.16-10.35-5.12-20.55-13.01-24.48-6.16-3.06-13.35-2.34-13.32-3.1.02-.39,1.94-.56,4.65-.93Zm-30.36.77c-2.82,0-5.73-2.01-5.73-3.72s2.75-3.41,5.58-3.41,5.89,1.7,5.89,3.41-2.91,3.72-5.73,3.72Z"/>
          <path class="cls-1" d="m337.75,306.46c-1.7,0-3.43-.29-5.17-.98-6.38-2.53-9.02-7.65-9.24-10.48-.72-9.32.92-11.96,2.66-14.76.16-.25.32-.51.48-.78.3-.5.96-1.5,1.99-2.53-4.59.41-10.41.46-15.03-2.55-2.81-1.83-5.25-4.85-6.67-8.28-1.53-3.68-1.78-7.48-.7-10.68.76-2.26,2.57-4.51,5.22-6.51,3.01-2.26,6.99-4.13,11.82-5.54,3.94-1.15,9.47-2.57,13.59-2.21-1.28-2.99-1.65-5.94-1.88-7.74-.76-6.04.37-13.23,3.02-19.22,2.24-5.07,6.6-11.7,14.63-14.49.48-.17,11.94-4.04,19.63,2.42,3.53,2.97,5.69,7.63,6.23,13.48.38,4.09-.09,8.64-1.25,12.5,1.94-1.66,4.02-3.32,6.05-4.69,8.84-5.98,16.62-8.13,23.14-6.39,8.8,2.35,17.07,13.08,14.95,23.92-1.62,8.28-9.08,14.4-15.28,15.96-.17.04-3.5.87-8.41,1.67,1.81.4,3.74,1,5.6,1.92,9.01,4.48,14.93,15.61,13.78,25.88-.64,5.65-2.76,10.22-6.32,13.56-9.79,9.21-24.68,3.63-25.31,3.38-8.72-3.36-12.94-10.36-14.32-12.66-1.84-3.05-3.04-6.21-3.83-9.11-.13.55-.28,1.11-.46,1.67-2.86,9.24-10.19,14.49-12.6,16.21-3.88,2.78-9.82,7.03-16.29,7.03Zm-1.86-33.1l.37,2.76c-.35.07-.65.12-.94.17-3.77.58-5.89,3.67-6.45,4.61-.17.28-.33.55-.5.81-1.62,2.61-2.9,4.67-2.25,13.08.11,1.38,1.71,5.82,7.49,8.1,6.97,2.76,14.38-2.55,18.81-5.72,2.22-1.59,8.98-6.43,11.56-14.77,1.39-4.49,1.2-8.68,1.1-10.93-.02-.53-.04-.95-.04-1.27.03-1.56,1.07-1.76,1.39-1.79.42-.03,1.44.06,1.68,1.68.05.37.1.87.15,1.51.3,3.5.93,10.78,5.06,17.62,1.26,2.1,5.11,8.48,12.94,11.5.14.05,13.87,5.21,22.4-2.81,3.06-2.88,4.9-6.86,5.46-11.84,1.17-10.44-5.43-19.68-12.25-23.07-3.74-1.86-7.97-2.25-10.5-2.48-2.05-.19-3.66-.33-3.6-1.93.06-1.5,1.47-1.68,4.56-2.08.4-.05.83-.11,1.29-.17h0c6.62-.9,11.42-2.09,11.62-2.14,5.44-1.36,11.88-6.89,13.22-13.79,1.8-9.23-5.47-18.7-12.93-20.69-5.7-1.52-12.72.5-20.86,6-4.38,2.96-9.11,7.41-11.94,10.07-2.32,2.18-2.51,2.36-3.14,2.4l-.91.07-.43-.81c-.44-.84.03-1.46.75-2.39.4-.52.95-1.21,1.55-1.96,1.16-1.45,3.08-3.86,3.38-4.42,2.53-6.77,3.07-18.8-3.63-24.43-6.49-5.46-16.5-2.07-16.92-1.92-7.08,2.46-10.98,8.42-13,12.98-2.46,5.55-3.5,12.19-2.81,17.75.34,2.69,1.04,8.29,5.11,11.82.49.42,1.15.82,1.97,1.19l-1.08,2.57c-.49-.2-1.01-.41-1.57-.65-1.88-.8-2.7-1.96-3.31-2.81-.55-.77-.75-1.01-1.36-1.13-4-.77-11.11,1.3-13.44,1.98-6.28,1.84-13.57,5.5-15.18,10.26-1.56,4.62.58,12.04,6.26,15.74,4.72,3.07,11.12,2.36,15.8,1.85.49-.05.98-.16,1.44-.26.77-.16,1.49-.32,2.23-.26.45.03.94.03,1.45,0Zm27.57-13.48c-3.6,0-7.13-2.53-7.13-5.11,0-2.75,3.68-4.8,6.97-4.8,4.17,0,7.28,2.54,7.28,4.8,0,2.58-3.53,5.11-7.13,5.11Zm-.15-7.13c-2.42,0-4.18,1.41-4.18,2.01,0,.64,1.97,2.32,4.34,2.32s4.34-1.69,4.34-2.32c0-.55-2.04-2.01-4.49-2.01Z"/>
        </g>
        <g>
          <path d="m569.82,345.53c.65-25.88-16.02-47.56-28.12-57.56-8.02-6.63-26.47-20.5-49.85-18.57l1.69-17.36-38.46,6.62-.67,6.85-3.14,32.22-7.26,60.94-2.85,29.19,35.33,6.56-1.02-11.17c19.66,14.57,65.66,11.87,80.54-4.27,2.32-2.52,13.35-15.05,13.8-33.44Zm-31.86-9.09c-2.21,16.68-30.96,30.99-55.2,19.57l5.83-57.32c28.18-3.33,51.58,21.07,49.37,37.76Z"/>
          <path class="cls-1" d="m478.05,396.12l-38.4-7.12,2.97-30.46,7.26-60.97,3.91-40.1,41.31-7.11-1.71,17.54c16.35-.86,32.89,5.52,49.19,18.99,13.6,11.25,29.26,33.36,28.63,58.67l-1.39-.03,1.39.03c-.45,18.11-10.96,30.87-14.17,34.35-7.26,7.87-21.99,13.14-39.43,14.1-16,.88-30.84-2.08-40.48-7.98l.92,10.08Zm-35.37-9.4l32.26,5.99-1.14-12.44,2.5,1.85c8.95,6.63,24.33,10.04,41.16,9.11,16.47-.91,30.85-5.97,37.53-13.2,3.04-3.3,13.01-15.4,13.44-32.53h0c.28-11.38-2.78-22.83-9.1-34.01-4.81-8.51-11.56-16.69-18.52-22.44-16.27-13.45-32.7-19.59-48.84-18.25l-1.66.14,1.68-17.2-35.61,6.13-3.71,38.01-7.26,60.97-2.72,27.89Zm58.69-25.21c-6.7,0-13.29-1.45-19.21-4.24l-.89-.42,6.05-59.42,1.11-.13c14.51-1.71,29.56,3.74,40.26,14.59,7.69,7.8,11.68,17.05,10.66,24.73-.96,7.26-6.76,14.45-15.52,19.23-5.93,3.23-12.74,5.16-19.68,5.58-.92.05-1.84.08-2.76.08Zm-17.13-6.35c14.23,6.3,29.02,3.28,38.24-1.75,7.98-4.35,13.25-10.76,14.09-17.15.91-6.84-2.79-15.22-9.88-22.41-9.82-9.96-23.52-15.11-36.84-13.89l-5.62,55.2Z"/>
        </g>
        <g>
          <path d="m365.51,386.38c28.19.62,49.7.08,104.59,4.89l-7.16-41.47-30.45,3.99-25.19,3.52,28.71-64.78,16.35-27.63-40.24-12.51-41.86,105.07s-6.72,28.88-4.75,28.93Z"/>
          <path class="cls-1" d="m471.78,392.82l-1.8-.16c-45.02-3.95-67.77-4.29-89.77-4.63-4.76-.07-9.69-.15-14.74-.26h0c-.48-.01-.93-.24-1.23-.63-.53-.68-1.25-1.61,1.67-16.21,1.39-6.93,2.97-13.73,2.98-13.79l.06-.2,42.34-106.27,43.15,13.42-17.21,29.08-27.66,62.42,22.71-3.17,31.79-4.17,7.7,44.57Zm-105.26-7.81c4.7.1,9.29.17,13.73.24,21.75.33,44.24.68,88.16,4.48l-6.63-38.37-29.13,3.82-27.66,3.87,29.8-67.22,15.45-26.11-37.32-11.61-41.34,103.77c-2.62,11.26-5.06,23.77-5.07,27.14Zm-.99-.02h0,0Z"/>
        </g>
        <g>
          <polygon points="315.28 385.2 369.48 387.12 384.26 283.48 347.04 283.58 315.28 385.2"/>
          <path class="cls-1" d="m370.68,388.55l-57.28-2.02,32.61-104.34,39.86-.11-15.19,106.47Zm-53.53-4.68l51.12,1.81,14.38-100.8-34.59.09-30.91,98.9Z"/>
        </g>
        <g>
          <polygon points="359.58 506.03 284.92 506.03 284.42 463.48 306.49 462.15 299.84 427.32 280.27 451.81 265.09 427.64 253.63 462.96 275.38 463.1 275.38 506.03 191.36 506.03 228.32 354.99 256.28 354.99 284.16 408.17 313.14 358.45 343.78 354.99 359.58 506.03"/>
          <path class="cls-1" d="m361.13,507.42h-77.59l-.53-45.25,21.81-1.31-5.78-30.3-18.91,23.66-14.64-23.3-9.95,30.67,21.23.13v45.71h-87.2l37.64-153.82h29.9l27.09,51.69,28.07-48.15,32.73-3.69.15,1.4,15.97,152.57Zm-74.83-2.79h71.74l-15.5-148.1-28.55,3.22-29.9,51.3-28.65-54.67h-26.03l-36.28,148.24h80.85v-40.15l-22.27-.14,12.97-39.97,15.72,25.03,20.24-25.32,7.51,39.37-22.33,1.35.47,39.84Z"/>
        </g>
        <g>
          <path d="m417.05,389.17c.58-1.42,1.02-3.18.91-5.18-.31-5.71-6.63-11.59-6.51-9.91.31,4.34.27,7.91-1.86,8.67-.9.32-2.16-.64-2.79-1.55-1.12-1.64-.59-3.71,0-5.89,2.09-7.71,2.4-8.12,2.79-9.91.32-1.46,4.27-8.64,2.17-14.56-.71-2.01-3.41,24.78-4.34-7.44-.26-8.92-6.82-6.51-10.22-8.67-2.97-1.89-4.33-5.34-.31-11.15,2.79-4.03,4.34-4.34,2.79-4.03-3.01.6-7.75,3.41-8.36,8.06-.58,4.37-1.28,10.46,5.58,21.69,2.22,3.64,4.68,5.87,4.34,9.6-.24,2.59-1.82,5.82-3.72,5.89-1.17.04-2.28-1.14-2.79-2.17-1.17-2.39.35-5.13,0-5.27-.27-.1-1.3,1.5-2.17,3.72-.44,1.12-1.44,3.66-1.55,6.51-.25,6.57.45,11.42,3.1,12.08,7.44,1.86-4.96,14.87-5.58,6.82l.03-.05c-.28-.89-.56-5.64-.75-6.11-.87-2.22-1.9-3.82-2.17-3.72-.35.13,1.17,2.88,0,5.27-.04.08-.08.98-.13,1.97-.07,1.45-1.27,2.6-2.73,2.6h-2.19c-.78-1.18-1.33-2.82-1.46-4.26-.35-3.73,2.11-5.97,4.34-9.6,6.86-11.22,3.65-21.08,2.79-25.4-.31-1.55-1.4-5.61-4.03-4.03-1.55.93.69.97.93,1.86,1.86,6.82.2,10.89-1.55,13.94-1.24,2.17-.93,1.87-5.89,9.29-2.42,3.62-3.62,5.43-4.34,7.44-2.1,5.92-.94,11.55-.62,13.01.31,1.4.56,1.96,1.65,5.79l-3.62,7.2c-.03-.56-2.81,1.11-3.51-1.87-.9-3.81.25-12.44.31-13.32.12-1.67-5.88,12.56-6.2,18.28-.11,2.04,3.35,6.34,3.94,7.77l-47.07,93.58,74.52-.1,1.24-27.54-26.43-.06,12.08-22.25h34.7l11.65,22.31-26.22.09,2.05,27.48,71.22.06c-10.78-28.09-10.68-27.92-34.85-83.69-2.45-5.65-.62-18.59-5.58-29.74-3.48-7.84-12.39-18.59-8.98-12.39,1.21,5.94,4.82,13.96,5.27,18.28.69,6.73-2.35,8.27-3.72,8.06l-.17-.22c-2.22-2.85-4.4-2.15-5.8-6.94-.65-2.21-.81-4.53-.57-6.81l.37-3.46Zm-32.86,45.62l10.41-22.33,12.52,22.33h-22.93Z"/>
          <path class="cls-1" d="m314.01,507.49l47.77-94.97c-.23-.39-.55-.89-.87-1.38-1.7-2.63-2.99-4.78-2.9-6.47.18-3.25,1.98-8.6,3.04-11.5.68-1.85,1.4-3.68,2.05-5.15,1.09-2.48,1.37-2.71,1.82-2.94.46-.23,1.01-.2,1.43.09.21.14.7.56.64,1.39,0,.13-.04.41-.08.81-.24,2.24-.98,9.04-.26,12.09.19.8.36.84,1.33.72l2.95-5.87c-.38-1.33-.65-2.23-.85-2.9-.31-1.03-.48-1.6-.67-2.46-1.04-4.75-.8-9.64.67-13.78.77-2.17,2.01-4.03,4.49-7.74,4.18-6.25,4.59-7,5.35-8.35.14-.25.3-.53.49-.86,1.71-2.99,3.07-6.6,1.48-12.65-.08-.04-.17-.1-.24-.13-.46-.25-1.31-.7-1.34-1.72-.03-1.05.91-1.62,1.22-1.8,1.31-.79,2.38-.6,3.05-.3,1.82.81,2.67,3.3,3.06,5.25.08.4.18.86.3,1.36,1.13,5.04,3.23,14.42-3.26,25.05-.55.9-1.1,1.7-1.63,2.47-1.58,2.29-2.72,3.94-2.5,6.28.09.99.42,2.1.88,2.99h1.39c.71,0,1.3-.56,1.33-1.27.1-2.01.1-2.18.27-2.51.57-1.17.21-2.62-.01-3.49-.16-.64-.5-1.98.77-2.46,1.31-.5,2.15.9,2.55,1.57.48.8.98,1.84,1.41,2.94.14.36.2.89.4,2.97.1,1.07.27,2.87.38,3.24l.18.63-.1.16c.07.4.2.87.48.88,0,0,.02,0,.03,0,1.3,0,4.26-2.75,4.58-5.06.1-.75-.08-1.31-1.29-1.62-3.19-.8-4.47-4.96-4.15-13.49.12-3.08,1.19-5.8,1.64-6.96.43-1.09.93-2.13,1.41-2.94.4-.67,1.24-2.07,2.55-1.57,1.27.49.93,1.82.77,2.46-.22.87-.59,2.32-.01,3.49.39.79,1.11,1.39,1.48,1.39h.01c.74-.02,2.15-2.19,2.38-4.62.22-2.34-.92-3.99-2.5-6.28-.53-.77-1.08-1.57-1.63-2.47-7.21-11.8-6.34-18.3-5.77-22.6.73-5.5,6.2-8.58,9.47-9.24.6-.12,1.6-.32,2.11.64.51.96-.2,1.67-.62,2.1-.54.54-1.54,1.54-2.86,3.45-1.78,2.58-2.52,4.74-2.18,6.43.22,1.09.92,2.02,2.09,2.76.77.49,1.89.71,3.08.93,3.2.61,7.58,1.45,7.79,8.88.15,5.08.33,8.47.52,10.72.03-.15.06-.3.09-.43.18-.87.36-1.69.51-2.3.2-.77.49-1.93,1.64-2.01.51-.03,1.21.22,1.5,1.03,1.87,5.26-.51,11.22-1.66,14.08-.2.5-.43,1.07-.47,1.24-.19.85-.36,1.42-.67,2.46-.37,1.23-.99,3.28-2.14,7.52-.59,2.17-.92,3.67-.2,4.73.39.57.98.95,1.22,1,1.36-.62,1.02-5.42.88-7.24-.05-.64.21-1.19.7-1.52.3-.2.95-.47,1.87-.01,1.82.91,6.43,5.98,6.72,11.27.1,1.87-.21,3.76-.93,5.6l-.35,3.27c-.23,2.18-.06,4.3.52,6.27.75,2.55,1.63,3.17,2.86,4.03.73.51,1.55,1.08,2.39,2.06.15-.07.34-.18.53-.36.5-.47,1.6-2.01,1.19-6.09-.22-2.14-1.32-5.39-2.48-8.84-1.04-3.09-2.12-6.28-2.72-9.1-.73-1.35-1.12-2.25-.59-3.06.29-.45.81-.7,1.35-.66.51.04,1.36.11,5.13,5.41,2.4,3.38,4.48,6.89,5.7,9.65,3.01,6.78,3.6,14.19,4.07,20.14.32,4.02.59,7.5,1.51,9.61,23.84,55.02,24.04,55.54,34.43,82.59l1.17,3.05-74.54-.07-2.26-30.26,25.42-.09-10.19-19.53h-33.02l-10.57,19.46,25.55.06-1.36,30.32-78.11.1Zm87.14-2.85l67.9.06c-10.08-26.27-10.5-27.28-34.1-81.74-1.1-2.54-1.39-6.23-1.73-10.5-.46-5.74-1.02-12.89-3.84-19.23-1.28-2.89-3.33-6.17-5.16-8.79.46,1.49.98,3.02,1.49,4.52,1.22,3.6,2.36,6.99,2.62,9.44.5,4.86-.83,7.25-2.04,8.39-.96.91-2.18,1.35-3.28,1.18l-.55-.08-.52-.66c-.69-.89-1.38-1.37-2.1-1.87-1.43-1-2.91-2.04-3.94-5.53-.68-2.33-.89-4.81-.62-7.36l.39-3.65.07-.18c.62-1.52.89-3.06.81-4.58-.16-2.88-2.08-5.81-3.59-7.5.08,3.5-.38,6.58-2.91,7.5-1.76.64-3.6-.89-4.41-2.07-1.51-2.2-.81-4.77-.2-7.04,1.16-4.28,1.78-6.35,2.16-7.6.3-1,.45-1.5.62-2.25.09-.4.29-.91.6-1.68.3-.75.69-1.73,1.06-2.85-.28.17-.6.24-.98.21-1.55-.14-1.88-2.03-2.18-4.68-.3-2.66-.53-6.92-.7-12.65-.15-5.19-2.41-5.62-5.53-6.22-1.39-.27-2.83-.54-4.05-1.32-1.8-1.15-2.95-2.72-3.32-4.56-.48-2.38.33-5.16,2.41-8.26-1.43,1.17-2.59,2.77-2.84,4.7-.55,4.15-1.31,9.82,5.38,20.78.51.84,1.04,1.6,1.55,2.34,1.69,2.45,3.29,4.77,2.99,8.12-.26,2.82-2.05,7.05-5.06,7.15-1.8.06-3.35-1.44-4.09-2.95-.05-.09-.09-.19-.13-.28-.42,1.22-.88,2.9-.94,4.68-.35,9.35,1.47,10.54,2.04,10.68,2.44.61,3.7,2.37,3.37,4.7-.44,3.17-4.2,7.46-7.35,7.46-.03,0-.07,0-.1,0-.69-.02-2.96-.36-3.23-3.89v-.18c-.1-.47-.18-1.16-.28-2.06-.31,1.99-2.02,3.48-4.07,3.48h-2.93s-.41-.62-.41-.62c-.9-1.36-1.53-3.19-1.69-4.9-.31-3.34,1.29-5.66,2.99-8.12.51-.74,1.04-1.51,1.55-2.34,5.65-9.25,4.12-17.59,3.06-22.36.27,4.46-1.06,7.6-2.52,10.15-.19.32-.34.59-.48.84-.79,1.41-1.23,2.19-5.46,8.53-2.35,3.52-3.53,5.28-4.18,7.13-1.3,3.65-1.5,8-.57,12.25.16.75.31,1.25.62,2.25.23.77.54,1.81,1.01,3.46l.15.52-6.24,12.41-.2-4c-1.9-.01-3.09-.99-3.54-2.9-.35-1.47-.42-3.51-.36-5.68-1.34,3.7-2.64,7.94-2.78,10.39-.05.92,1.64,3.55,2.46,4.81.64.99,1.14,1.77,1.38,2.35l.24.59-.29.57-46.05,91.56,70.92-.09,1.11-24.76-27.31-.06,13.59-25.03h36.37l13.1,25.09-27.01.09,1.84,24.7Zm8.34-68.45h-27.49l12.48-26.78,15.01,26.78Zm-23.12-2.79h18.36l-10.02-17.88-8.33,17.88Z"/>
        </g>
        <g>
          <path d="m572.5,450.25c-3.77-24.63-23.25-42.35-36.41-49.78-8.72-4.92-28.55-14.94-50.38-9.15l-1.34-16.74-35.33,12.8.53,6.6,2.48,31.06,3.45,58.97,1.63,21.95,34.59.22-2.24-4.22c21.1,10.47,64.23.12,75.6-17.7,1.78-2.78,10.09-16.53,7.41-34.03Zm-73.93,23.45l-3.93-49.1c13.69-1.79,23.13.03,28.88,3.6,6.21,3.85,8.31,6.79,11.76,14.91,10.5,24.74-11.17,31.35-36.71,30.6Z"/>
          <path class="cls-1" d="m494.06,507.6l-38.21-.25-1.73-23.23-3.45-59-3.09-38.7,38.04-13.78,1.35,16.92c15.35-3.57,32.1-.32,49.81,9.68,14.8,8.36,33.4,26.67,37.1,50.79h0c2.64,17.25-5.16,31.15-7.62,34.99-5.55,8.7-18.63,16.2-35,20.06-14.52,3.43-28.61,3.27-38.7-.31l1.5,2.82Zm-7.83-8.8l3.89,1.93c9.59,4.76,24.74,5.38,40.51,1.65,15.45-3.65,28.2-10.87,33.29-18.85,2.32-3.64,9.71-16.78,7.21-33.07-1.66-10.83-6.5-21.14-14.38-30.67-6-7.24-13.77-13.85-21.33-18.11-17.68-9.98-34.28-13.01-49.34-9.01l-1.61.43-1.33-16.58-32.61,11.81,2.93,36.61,3.45,59,1.53,20.64,30.97.2-3.18-5.98Zm16.11-23.65c-1.24,0-2.51-.02-3.81-.06l-1.25-.04-4.13-51.67,1.31-.17c12.79-1.68,23.09-.36,29.8,3.79,6.63,4.11,8.88,7.49,12.31,15.55,3.74,8.81,3.76,16.04.05,21.47-2.89,4.23-8.03,7.31-15.27,9.13-5.28,1.33-11.66,2-19,2Zm-2.48-2.81c22.54.46,31.18-5.09,34.45-9.88,3.14-4.6,3.04-10.92-.31-18.81-3.47-8.17-5.46-10.7-11.21-14.27-4.16-2.58-12.14-5.25-26.65-3.56l3.72,46.52Z"/>
        </g>
      </g>
    </g>
  </g>
</svg>