<?xml version="1.0" encoding="UTF-8"?>
<svg id="Layer_2" data-name="Layer 2" xmlns="http://www.w3.org/2000/svg" viewBox="0 0 750 750">
  <defs>
    <style>
      .cls-1 {
        fill: #fff;
      }

      .cls-2, .cls-3, .cls-4 {
        fill: #171ef4;
      }

      .cls-3 {
        letter-spacing: .16em;
      }

      .cls-3, .cls-4 {
        font-family: Arial-Black, 'Arial Black';
        font-size: 48.82px;
        font-weight: 800;
      }

      .cls-5 {
        letter-spacing: -.06em;
      }
    </style>
  </defs>
  <g id="Layer_1-2" data-name="Layer 1">
    <circle class="cls-2" cx="375" cy="375" r="375"/>
    <circle class="cls-1" cx="374.98" cy="373.04" r="260.13"/>
    <g>
      <polygon class="cls-2" points="322.39 298.83 322.39 258.04 258.66 258.04 217.88 258.04 212.84 258.04 212.84 426.54 258.66 426.54 258.66 362.69 302.23 362.69 302.23 321.9 258.66 321.9 258.66 298.83 322.39 298.83"/>
      <path class="cls-2" d="m420.13,365.05c-.68.35-1.29.79-2.01,1.09-14.82,6.18-31.84-.82-38.03-15.63-6.18-14.82.81-31.84,15.63-38.03.72-.3,1.46-.43,2.19-.66l-22.44-53.77c-.71.28-1.44.47-2.14.77-44.45,18.55-65.45,69.63-46.9,114.08,18.55,44.45,69.63,65.45,114.08,46.9.71-.3,1.36-.67,2.06-.98l-22.44-53.77Z"/>
      <path class="cls-2" d="m437.02,372.78c.7-.36,1.34-.81,2.08-1.12,15.31-6.39,32.89.84,39.28,16.15,6.39,15.31-.84,32.89-16.15,39.28-.74.31-1.51.44-2.26.69l23.18,55.53c.74-.28,1.48-.49,2.22-.8,45.92-19.16,67.6-71.92,48.44-117.83-19.16-45.92-71.92-67.6-117.83-48.44-.73.31-1.4.69-2.12,1.01l23.18,55.53Z"/>
      <text class="cls-4" transform="translate(209.23 476.99)"><tspan x="0" y="0">FESTI</tspan><tspan class="cls-5" x="157.33" y="0">V</tspan><tspan x="192.52" y="0">A</tspan></text>
      <text class="cls-3" transform="translate(440.42 473.9) rotate(9.85)"><tspan x="0" y="0">L</tspan></text>
    </g>
  </g>
</svg>